<?xml version="1.0" encoding="UTF-8" standalone="no"?>
<svg
   inkscape:version="1.3.2 (091e20ef0f, 2023-11-25)"
   sodipodi:docname="ova.svg"
   version="1.1"
   viewBox="0 0 146 170"
   xml:space="preserve"
   id="svg118"
   width="146"
   height="170"
   xmlns:inkscape="http://www.inkscape.org/namespaces/inkscape"
   xmlns:sodipodi="http://sodipodi.sourceforge.net/DTD/sodipodi-0.dtd"
   xmlns="http://www.w3.org/2000/svg"
   xmlns:svg="http://www.w3.org/2000/svg"
   xmlns:rdf="http://www.w3.org/1999/02/22-rdf-syntax-ns#"
   xmlns:cc="http://creativecommons.org/ns#"
   xmlns:dc="http://purl.org/dc/elements/1.1/"><defs
     id="defs120" /><title
     id="title2">Open Virtualization Alliance logo</title><metadata
     id="metadata4"><rdf:RDF><cc:Work
         rdf:about=""><dc:format>image/svg+xml</dc:format><dc:type
           rdf:resource="http://purl.org/dc/dcmitype/StillImage" /><dc:title>Open Virtualization Alliance logo</dc:title></cc:Work></rdf:RDF></metadata><sodipodi:namedview
     bordercolor="#666666"
     borderopacity="1"
     gridtolerance="10"
     guidetolerance="10"
     inkscape:current-layer="g116"
     inkscape:cx="163.22474"
     inkscape:cy="89.855217"
     inkscape:document-rotation="0"
     inkscape:pageopacity="0"
     inkscape:pageshadow="2"
     inkscape:window-height="1371"
     inkscape:window-maximized="1"
     inkscape:window-width="3440"
     inkscape:window-x="0"
     inkscape:window-y="32"
     inkscape:zoom="6.1265224"
     objecttolerance="10"
     pagecolor="#ffffff"
     showgrid="false"
     id="namedview6"
     inkscape:showpageshadow="2"
     inkscape:pagecheckerboard="0"
     inkscape:deskcolor="#d1d1d1" /><g
     transform="matrix(1.25,0,0,-1.25,-8.24,176)"
     inkscape:groupmode="layer"
     inkscape:label="ink_ext_XXXXXX"
     id="g116"><path
       d="m 31.738142,77.412966 -10.5502,6.05556 2.75094,1.6038 10.5502,-6.03612 -2.72136,-1.63296 m 12.818,7.66908 -10.1558,6.075 3.8454,2.24532 10.353,-5.93892 -3.9933,-2.39112 m 13.804,8.27172 -10.0572,5.9778 17.1564,10.011604 V 97.562526 l -7.13864,-4.26708"
       style="fill:#fbe29f;stroke-width:0.0978975"
       id="path60" /><path
       d="m 98.293142,77.607366 -2.38612,1.458 10.648798,6.24996 2.33682,-1.37052 -10.648798,-6.33744 m -12.0292,7.36776 -4.12148,2.50776 10.353,6.08472 4.10176,-2.41056 -10.353,-6.19164 m -13.7054,8.34948 -7.02032,4.28652 v 11.761204 l 17.1564,-10.011604 -10.0572,-6.0264"
       style="fill:#f6dca4;stroke-width:0.0978975"
       id="path62" /><path
       d="m 65.557942,45.628566 v 12.3444 l 32.7352,19.5372 10.648798,-6.47352 -43.383998,-25.4664"
       style="fill:#fbe29f;stroke-width:0.0978975"
       id="path64" /><path
       d="m 108.94194,71.094966 -10.648798,6.47352 10.648798,6.33744 v -12.8304"
       style="fill:#f5cda8;stroke-width:0.0978975"
       id="path66" /><path
       d="m 65.557942,45.628566 -44.37,25.4664 10.5502,6.30828 33.8198,-19.44 v -12.3444"
       style="fill:#f6dca4;stroke-width:0.0978975"
       id="path68" /><path
       d="m 21.178082,71.094966 v 12.3444 l 10.5502,-6.05556 -10.5502,-6.30828"
       style="fill:#f5cda8;stroke-width:0.0978975"
       id="path70" /><path
       d="m 65.557942,140.49577 -44.37,-24.8832 10.5502,-6.28884 33.8198,19.44 v 11.7612"
       style="fill:#f6a60e;stroke-width:0.0978975"
       id="path72" /><path
       d="m 65.557942,140.49577 v -11.7612 l 33.4254,-19.6344 9.958598,5.96808 -43.383998,25.4664"
       style="fill:#e79714;stroke-width:0.0978975"
       id="path74" /><path
       d="m 98.983342,109.00297 -3.96372,-2.37168 9.958598,-5.84172 3.9933,2.34252 -9.958598,5.87088 m -13.9026,-8.33004 -2.34668,-1.399684 9.85014,-5.7834 2.34668,1.38024 -9.86,5.802844 m -12.4236,-7.426084 -7.02032,-4.18932 v -11.3724 l 16.5648,9.72 -9.5642,5.84172"
       style="fill:#f6a60e;stroke-width:0.0978975"
       id="path76" /><path
       d="m 82.615742,99.282966 -10.0572,-6.0264 9.5642,-5.84172 10.353,6.08472 -9.85014,5.7834"
       style="fill:#ef9114;stroke-width:0.0978975"
       id="path78" /><path
       d="m 108.94194,115.02937 -9.958598,-5.96808 9.958598,-5.87088 v 11.8584"
       style="fill:#e36e1a;stroke-width:0.0978975"
       id="path80" /><path
       d="m 31.738142,109.19737 -10.5502,-6.075 3.66792,-2.09952 10.6488,5.95836 -3.72708,2.21616"
       style="fill:#e79714;stroke-width:0.0978975"
       id="path82" /><path
       d="m 21.178082,115.51537 v -12.3444 l 10.5502,6.075 -10.5502,6.28884"
       style="fill:#e36e1a;stroke-width:0.0978975"
       id="path84" /><path
       d="m 45.837942,100.83817 -10.2544,-5.919484 2.6622,-1.52604 10.1558,5.9292 -2.54388,1.516324 m 12.6208,-7.494124 -9.84028,-5.89032 16.9592,-9.72 v 11.3724 l -7.13864,4.25736"
       style="fill:#e79714;stroke-width:0.0978975"
       id="path86" /><path
       d="m 48.401542,99.282966 -10.1558,-5.9292 10.353,-5.93892 9.84028,5.89032 -10.0572,5.9778"
       style="fill:#e78715;stroke-width:0.0978975"
       id="path88" /><path
       d="m 31.738142,92.673366 -10.5502,6.28884 3.66792,2.060644 10.7474,-6.143044 -3.82568,-2.20644 m 14.0998,8.125924 -10.353,6.18192 30.073,16.9128 v -11.7612 l -19.72,-11.3724"
       style="fill:#f9c64e;stroke-width:0.0978975"
       id="path90" /><path
       d="m 35.484942,107.05897 -10.6488,-5.95836 10.7474,-6.143044 10.2544,5.919484 -10.353,6.18192"
       style="fill:#e57b17;stroke-width:0.0978975"
       id="path92" /><path
       d="m 98.983342,92.478966 -4.08204,2.40084 10.057198,5.909764 3.9933,-2.342524 -9.958598,-5.96808 m -13.9026,8.193964 -19.4242,11.4696 v 11.7612 l 29.3828,-17.3016 -9.9586,-5.95836"
       style="fill:#eebb55;stroke-width:0.0978975"
       id="path94" /><path
       d="m 94.940742,106.67017 -9.9586,-5.95836 9.86,-5.802844 10.057198,5.909764 -9.958598,5.84172"
       style="fill:#ea8015;stroke-width:0.0978975"
       id="path96" /><path
       d="m 106.57554,85.286166 -9.958598,5.85144 2.32696,1.38996 9.958598,-5.87088 -2.33682,-1.37052"
       style="fill:#f9c64e;stroke-width:0.0978975"
       id="path98" /><path
       d="m 65.557942,61.180566 v 11.3724 l 20.706,12.3444 9.69238,-5.90976 -30.3688,-17.7876"
       style="fill:#f9c64e;stroke-width:0.0978975"
       id="path100" /><path
       d="m 95.926742,79.065366 -9.69238,5.90976 10.353,6.19164 9.958598,-5.85144 -10.648798,-6.24996"
       style="fill:#f1aa3c;stroke-width:0.0978975"
       id="path102" /><path
       d="m 108.94194,86.646966 -9.958598,5.87088 9.958598,5.96808 v -11.8584"
       style="fill:#eda15d;stroke-width:0.0978975"
       id="path104" /><path
       d="m 23.929022,85.091766 -2.75094,1.57464 10.5502,6.075 2.63262,-1.57464 -10.4516,-6.08472"
       style="fill:#eebb55;stroke-width:0.0978975"
       id="path106" /><path
       d="m 65.557942,61.180566 -31.059,17.7876 10.1558,6.04584 21.0018,-12.5388 v -11.3724"
       style="fill:#eebb55;stroke-width:0.0978975"
       id="path108" /><path
       d="m 34.498942,79.065366 -10.5502,6.03612 10.4516,6.08472 10.1558,-6.075 -10.1558,-6.04584"
       style="fill:#eda63e;stroke-width:0.0978975"
       id="path110" /><path
       d="m 21.178082,86.646966 v 12.3444 l 10.5502,-6.28884 -10.5502,-6.075"
       style="fill:#eda15d;stroke-width:0.0978975"
       id="path112" /></g></svg>
