<?xml version="1.0" encoding="UTF-8" standalone="no"?>
<!-- Created with Inkscape (http://www.inkscape.org/) -->

<svg
   version="1.1"
   id="svg2"
   width="915.30017"
   height="878.58716"
   viewBox="0 0 915.30017 878.58716"
   sodipodi:docname="Automation-Minispot-Technology-illustration-quote.ai"
   xmlns:inkscape="http://www.inkscape.org/namespaces/inkscape"
   xmlns:sodipodi="http://sodipodi.sourceforge.net/DTD/sodipodi-0.dtd"
   xmlns="http://www.w3.org/2000/svg"
   xmlns:svg="http://www.w3.org/2000/svg">
  <defs
     id="defs6">
    <clipPath
       clipPathUnits="userSpaceOnUse"
       id="clipPath20">
      <path
         d="M 0,1080 H 1080 V 0 H 0 Z"
         id="path18" />
    </clipPath>
    <pattern
       patternTransform="matrix(2.40421,0,0,2.40421,10739.501,-13745.92)"
       patternUnits="userSpaceOnUse"
       x="0"
       y="0"
       width="28.7998"
       height="28.8008"
       id="pattern86">
      <g
         transform="translate(28.7996,-1.4396)"
         id="g36">
        <path
           d="m 0,0 c 0.795,0 1.439,0.645 1.439,1.439 0,0.795 -0.644,1.44 -1.439,1.44 -0.796,0 -1.44,-0.645 -1.44,-1.44 C -1.44,0.645 -0.796,0 0,0"
           style="fill:#fc0000;fill-opacity:1;fill-rule:nonzero;stroke:none"
           id="path34" />
      </g>
      <g
         transform="translate(14.3992,-1.4396)"
         id="g40">
        <path
           d="m 0,0 c 0.795,0 1.441,0.645 1.441,1.439 0,0.795 -0.646,1.44 -1.441,1.44 -0.796,0 -1.439,-0.645 -1.439,-1.44 C -1.439,0.645 -0.796,0 0,0"
           style="fill:#fc0000;fill-opacity:1;fill-rule:nonzero;stroke:none"
           id="path38" />
      </g>
      <g
         transform="translate(28.7996,12.9588)"
         id="g44">
        <path
           d="m 0,0 c 0.795,0 1.439,0.646 1.439,1.441 0,0.795 -0.644,1.44 -1.439,1.44 -0.796,0 -1.44,-0.645 -1.44,-1.44 C -1.44,0.646 -0.796,0 0,0"
           style="fill:#fc0000;fill-opacity:1;fill-rule:nonzero;stroke:none"
           id="path42" />
      </g>
      <g
         transform="translate(14.3992,12.9588)"
         id="g48">
        <path
           d="m 0,0 c 0.795,0 1.441,0.646 1.441,1.441 0,0.795 -0.646,1.44 -1.441,1.44 -0.796,0 -1.439,-0.645 -1.439,-1.44 C -1.439,0.646 -0.796,0 0,0"
           style="fill:#fc0000;fill-opacity:1;fill-rule:nonzero;stroke:none"
           id="path46" />
      </g>
      <g
         transform="translate(7.199,5.7597)"
         id="g52">
        <path
           d="M 0,0 C 0.795,0 1.44,0.645 1.44,1.439 1.44,2.236 0.795,2.881 0,2.881 -0.796,2.881 -1.439,2.236 -1.439,1.439 -1.439,0.645 -0.796,0 0,0"
           style="fill:#fc0000;fill-opacity:1;fill-rule:nonzero;stroke:none"
           id="path50" />
      </g>
      <g
         transform="translate(21.5994,5.7597)"
         id="g56">
        <path
           d="M 0,0 C 0.795,0 1.44,0.645 1.44,1.439 1.44,2.236 0.795,2.881 0,2.881 -0.796,2.881 -1.44,2.236 -1.44,1.439 -1.44,0.645 -0.796,0 0,0"
           style="fill:#fc0000;fill-opacity:1;fill-rule:nonzero;stroke:none"
           id="path54" />
      </g>
      <g
         transform="translate(7.199,20.16)"
         id="g60">
        <path
           d="M 0,0 C 0.795,0 1.44,0.645 1.44,1.439 1.44,2.236 0.795,2.881 0,2.881 -0.796,2.881 -1.439,2.236 -1.439,1.439 -1.439,0.645 -0.796,0 0,0"
           style="fill:#fc0000;fill-opacity:1;fill-rule:nonzero;stroke:none"
           id="path58" />
      </g>
      <g
         transform="translate(21.5994,20.16)"
         id="g64">
        <path
           d="M 0,0 C 0.795,0 1.44,0.645 1.44,1.439 1.44,2.236 0.795,2.881 0,2.881 -0.796,2.881 -1.44,2.236 -1.44,1.439 -1.44,0.645 -0.796,0 0,0"
           style="fill:#fc0000;fill-opacity:1;fill-rule:nonzero;stroke:none"
           id="path62" />
      </g>
      <g
         transform="translate(-2e-4,-1.4396)"
         id="g68">
        <path
           d="m 0,0 c 0.795,0 1.439,0.645 1.439,1.439 0,0.795 -0.644,1.44 -1.439,1.44 -0.796,0 -1.44,-0.645 -1.44,-1.44 C -1.44,0.645 -0.796,0 0,0"
           style="fill:#fc0000;fill-opacity:1;fill-rule:nonzero;stroke:none"
           id="path66" />
      </g>
      <g
         transform="translate(-2e-4,12.9588)"
         id="g72">
        <path
           d="m 0,0 c 0.795,0 1.439,0.646 1.439,1.441 0,0.795 -0.644,1.44 -1.439,1.44 -0.796,0 -1.44,-0.645 -1.44,-1.44 C -1.44,0.646 -0.796,0 0,0"
           style="fill:#fc0000;fill-opacity:1;fill-rule:nonzero;stroke:none"
           id="path70" />
      </g>
      <g
         transform="translate(28.7996,27.3612)"
         id="g76">
        <path
           d="m 0,0 c 0.795,0 1.439,0.645 1.439,1.439 0,0.795 -0.644,1.44 -1.439,1.44 -0.796,0 -1.44,-0.645 -1.44,-1.44 C -1.44,0.645 -0.796,0 0,0"
           style="fill:#fc0000;fill-opacity:1;fill-rule:nonzero;stroke:none"
           id="path74" />
      </g>
      <g
         transform="translate(14.3992,27.3612)"
         id="g80">
        <path
           d="m 0,0 c 0.795,0 1.441,0.645 1.441,1.439 0,0.795 -0.646,1.44 -1.441,1.44 -0.796,0 -1.439,-0.645 -1.439,-1.44 C -1.439,0.645 -0.796,0 0,0"
           style="fill:#fc0000;fill-opacity:1;fill-rule:nonzero;stroke:none"
           id="path78" />
      </g>
      <g
         transform="translate(-2e-4,27.3612)"
         id="g84">
        <path
           d="m 0,0 c 0.795,0 1.439,0.645 1.439,1.439 0,0.795 -0.644,1.44 -1.439,1.44 -0.796,0 -1.44,-0.645 -1.44,-1.44 C -1.44,0.645 -0.796,0 0,0"
           style="fill:#fc0000;fill-opacity:1;fill-rule:nonzero;stroke:none"
           id="path82" />
      </g>
    </pattern>
  </defs>
  <sodipodi:namedview
     id="namedview4"
     pagecolor="#ffffff"
     bordercolor="#000000"
     borderopacity="0.25"
     inkscape:showpageshadow="2"
     inkscape:pageopacity="0.0"
     inkscape:pagecheckerboard="0"
     inkscape:deskcolor="#d1d1d1"
     showgrid="false" />
  <g
     id="g10"
     inkscape:groupmode="layer"
     inkscape:label="Page 1"
     transform="matrix(1.3333333,0,0,-1.3333333,-262.35013,1159.2936)">
    <path
       d="M 790.832,326.524 H 360.099 v 383.883 h 430.733 z"
       style="fill:#fc0000;fill-opacity:1;fill-rule:nonzero;stroke:none"
       id="path12" />
    <g
       id="g14">
      <g
         id="g16"
         clip-path="url(#clipPath20)">
        <g
           id="g22"
           transform="translate(360.0991,246.1196)">
          <path
             d="m 0,0 h -115.991 c -24.561,0 -44.472,19.911 -44.472,44.472 V 322.08 c 0,24.561 19.911,44.472 44.472,44.472 h 541.208"
             style="fill:none;stroke:#fc0000;stroke-width:5.747;stroke-linecap:round;stroke-linejoin:round;stroke-miterlimit:10;stroke-dasharray:none;stroke-opacity:1"
             id="path24" />
        </g>
        <g
           id="g26"
           transform="translate(716.2275,246.1196)">
          <path
             d="M 0,0 H -140.762"
             style="fill:none;stroke:#fc0000;stroke-width:5.747;stroke-linecap:round;stroke-linejoin:round;stroke-miterlimit:10;stroke-dasharray:none;stroke-opacity:1"
             id="path28" />
        </g>
        <path
           d="M 755.366,361.989 H 324.633 v 383.884 h 430.733 z"
           style="fill:#ffffff;fill-opacity:1;fill-rule:nonzero;stroke:#fc0000;stroke-width:5.747;stroke-linecap:round;stroke-linejoin:round;stroke-miterlimit:10;stroke-dasharray:none;stroke-opacity:1"
           id="path30" />
        <g
           id="g32"
           transform="translate(755.3662,361.9893)">
          <path
             d="M 0,0 -395.267,6.832 -15.558,383.884 H 0 Z"
             style="fill:url(#pattern86);fill-opacity:1;fill-rule:nonzero;stroke:none"
             id="path88" />
        </g>
        <g
           id="g90"
           transform="translate(260.7705,571.3564)">
          <path
             d="m 0,0 c 0,-10.703 -8.676,-19.378 -19.379,-19.378 -10.703,0 -19.379,8.675 -19.379,19.378 0,10.703 8.676,19.379 19.379,19.379 C -8.676,19.379 0,10.703 0,0 Z"
             style="fill:none;stroke:#fc0000;stroke-width:5.747;stroke-linecap:round;stroke-linejoin:round;stroke-miterlimit:10;stroke-dasharray:none;stroke-opacity:1"
             id="path92" />
        </g>
        <g
           id="g94"
           transform="translate(260.6343,285.9722)">
          <path
             d="m 0,0 c 0,-10.703 -8.676,-19.378 -19.379,-19.378 -10.703,0 -19.379,8.675 -19.379,19.378 0,10.703 8.676,19.379 19.379,19.379 C -8.676,19.379 0,10.703 0,0 Z"
             style="fill:none;stroke:#fc0000;stroke-width:5.747;stroke-linecap:round;stroke-linejoin:round;stroke-miterlimit:10;stroke-dasharray:none;stroke-opacity:1"
             id="path96" />
        </g>
        <g
           id="g98"
           transform="translate(523.8682,833.8804)">
          <path
             d="M 0,0 H -125.012"
             style="fill:none;stroke:#fc0000;stroke-width:5.747;stroke-linecap:round;stroke-linejoin:round;stroke-miterlimit:10;stroke-dasharray:none;stroke-opacity:1"
             id="path100" />
        </g>
        <g
           id="g102"
           transform="translate(779.7012,612.6714)">
          <path
             d="m 0,0 h 56.19 c 24.562,0 44.473,19.911 44.473,44.472 v 132.265 c 0,24.561 -19.911,44.472 -44.473,44.472 H -49.814"
             style="fill:none;stroke:#fc0000;stroke-width:5.747;stroke-linecap:round;stroke-linejoin:round;stroke-miterlimit:10;stroke-dasharray:none;stroke-opacity:1"
             id="path104" />
        </g>
        <g
           id="g106"
           transform="translate(820.7891,791.9014)">
          <path
             d="m 0,0 c 0,-10.703 8.676,-19.379 19.379,-19.379 10.702,0 19.379,8.676 19.379,19.379 0,10.703 -8.677,19.379 -19.379,19.379 C 8.676,19.379 0,10.703 0,0 Z"
             style="fill:none;stroke:#fc0000;stroke-width:5.747;stroke-linecap:round;stroke-linejoin:round;stroke-miterlimit:10;stroke-dasharray:none;stroke-opacity:1"
             id="path108" />
        </g>
        <g
           id="g110"
           transform="translate(819.8223,654.2915)">
          <path
             d="m 0,0 c 0,-10.703 8.676,-19.379 19.379,-19.379 10.703,0 19.379,8.676 19.379,19.379 0,10.703 -8.676,19.379 -19.379,19.379 C 8.676,19.379 0,10.703 0,0 Z"
             style="fill:none;stroke:#fc0000;stroke-width:5.747;stroke-linecap:round;stroke-linejoin:round;stroke-miterlimit:10;stroke-dasharray:none;stroke-opacity:1"
             id="path112" />
        </g>
        <g
           id="g114"
           transform="translate(749.3701,246.1196)">
          <path
             d="m 0,0 c 0,-10.703 -8.677,-19.379 -19.379,-19.379 -10.703,0 -19.379,8.676 -19.379,19.379 0,10.703 8.676,19.378 19.379,19.378 C -8.677,19.378 0,10.703 0,0"
             style="fill:#ffffff;fill-opacity:1;fill-rule:nonzero;stroke:none"
             id="path116" />
        </g>
        <g
           id="g118"
           transform="translate(749.3701,246.1196)">
          <path
             d="m 0,0 c 0,-10.703 -8.677,-19.379 -19.379,-19.379 -10.703,0 -19.379,8.676 -19.379,19.379 0,10.703 8.676,19.378 19.379,19.378 C -8.677,19.378 0,10.703 0,0 Z"
             style="fill:none;stroke:#fc0000;stroke-width:5.747;stroke-linecap:round;stroke-linejoin:round;stroke-miterlimit:10;stroke-dasharray:none;stroke-opacity:1"
             id="path120" />
        </g>
        <g
           id="g122"
           transform="translate(398.8564,833.8804)">
          <path
             d="m 0,0 c 0,-10.703 -8.676,-19.378 -19.378,-19.378 -10.704,0 -19.379,8.675 -19.379,19.378 0,10.703 8.675,19.379 19.379,19.379 C -8.676,19.379 0,10.703 0,0"
             style="fill:#ffffff;fill-opacity:1;fill-rule:nonzero;stroke:none"
             id="path124" />
        </g>
        <g
           id="g126"
           transform="translate(398.8564,833.8804)">
          <path
             d="m 0,0 c 0,-10.703 -8.676,-19.378 -19.378,-19.378 -10.704,0 -19.379,8.675 -19.379,19.378 0,10.703 8.675,19.379 19.379,19.379 C -8.676,19.379 0,10.703 0,0 Z"
             style="fill:none;stroke:#fc0000;stroke-width:5.747;stroke-linecap:round;stroke-linejoin:round;stroke-miterlimit:10;stroke-dasharray:none;stroke-opacity:1"
             id="path128" />
        </g>
        <g
           id="g130"
           transform="translate(392.1167,278.8354)">
          <path
             d="M 0,0 H 50.382"
             style="fill:none;stroke:#fc0000;stroke-width:5.747;stroke-linecap:round;stroke-linejoin:round;stroke-miterlimit:10;stroke-dasharray:none;stroke-opacity:1"
             id="path132" />
        </g>
        <g
           id="g134"
           transform="translate(392.1167,246.1196)">
          <path
             d="M 0,0 H 92.423"
             style="fill:none;stroke:#fc0000;stroke-width:5.747;stroke-linecap:round;stroke-linejoin:round;stroke-miterlimit:10;stroke-dasharray:none;stroke-opacity:1"
             id="path136" />
        </g>
        <g
           id="g138"
           transform="translate(498.0303,246.1196)">
          <path
             d="M 0,0 H 50.382"
             style="fill:none;stroke:#fc0000;stroke-width:5.747;stroke-linecap:round;stroke-linejoin:round;stroke-miterlimit:10;stroke-dasharray:none;stroke-opacity:1"
             id="path140" />
        </g>
        <g
           id="g142"
           transform="translate(548.4126,213.4033)">
          <path
             d="M 0,0 H -92.423"
             style="fill:none;stroke:#fc0000;stroke-width:5.747;stroke-linecap:round;stroke-linejoin:round;stroke-miterlimit:10;stroke-dasharray:none;stroke-opacity:1"
             id="path144" />
        </g>
        <g
           id="g146"
           transform="translate(442.4985,213.4033)">
          <path
             d="M 0,0 H -50.382"
             style="fill:none;stroke:#fc0000;stroke-width:5.747;stroke-linecap:round;stroke-linejoin:round;stroke-miterlimit:10;stroke-dasharray:none;stroke-opacity:1"
             id="path148" />
        </g>
        <g
           id="g150"
           transform="translate(498.0303,278.8354)">
          <path
             d="M 0,0 H 50.382"
             style="fill:none;stroke:#fc0000;stroke-width:5.747;stroke-linecap:round;stroke-linejoin:round;stroke-miterlimit:10;stroke-dasharray:none;stroke-opacity:1"
             id="path152" />
        </g>
        <g
           id="g154"
           transform="translate(459.3486,278.8354)">
          <path
             d="M 0,0 H 25.191"
             style="fill:none;stroke:#fc0000;stroke-width:5.747;stroke-linecap:round;stroke-linejoin:round;stroke-miterlimit:10;stroke-dasharray:none;stroke-opacity:1"
             id="path156" />
        </g>
        <g
           id="g158"
           transform="translate(703.9873,801.1646)">
          <path
             d="M 0,0 H -50.382"
             style="fill:none;stroke:#fc0000;stroke-width:5.747;stroke-linecap:round;stroke-linejoin:round;stroke-miterlimit:10;stroke-dasharray:none;stroke-opacity:1"
             id="path160" />
        </g>
        <g
           id="g162"
           transform="translate(703.9873,833.8804)">
          <path
             d="M 0,0 H -92.423"
             style="fill:none;stroke:#fc0000;stroke-width:5.747;stroke-linecap:round;stroke-linejoin:round;stroke-miterlimit:10;stroke-dasharray:none;stroke-opacity:1"
             id="path164" />
        </g>
        <g
           id="g166"
           transform="translate(598.0732,833.8804)">
          <path
             d="M 0,0 H -50.382"
             style="fill:none;stroke:#fc0000;stroke-width:5.747;stroke-linecap:round;stroke-linejoin:round;stroke-miterlimit:10;stroke-dasharray:none;stroke-opacity:1"
             id="path168" />
        </g>
        <g
           id="g170"
           transform="translate(547.6914,866.5967)">
          <path
             d="M 0,0 H 92.423"
             style="fill:none;stroke:#fc0000;stroke-width:5.747;stroke-linecap:round;stroke-linejoin:round;stroke-miterlimit:10;stroke-dasharray:none;stroke-opacity:1"
             id="path172" />
        </g>
        <g
           id="g174"
           transform="translate(653.605,866.5967)">
          <path
             d="M 0,0 H 50.382"
             style="fill:none;stroke:#fc0000;stroke-width:5.747;stroke-linecap:round;stroke-linejoin:round;stroke-miterlimit:10;stroke-dasharray:none;stroke-opacity:1"
             id="path176" />
        </g>
        <g
           id="g178"
           transform="translate(598.0732,801.1646)">
          <path
             d="M 0,0 H -50.382"
             style="fill:none;stroke:#fc0000;stroke-width:5.747;stroke-linecap:round;stroke-linejoin:round;stroke-miterlimit:10;stroke-dasharray:none;stroke-opacity:1"
             id="path180" />
        </g>
        <g
           id="g182"
           transform="translate(636.7549,801.1646)">
          <path
             d="M 0,0 H -25.191"
             style="fill:none;stroke:#fc0000;stroke-width:5.747;stroke-linecap:round;stroke-linejoin:round;stroke-miterlimit:10;stroke-dasharray:none;stroke-opacity:1"
             id="path184" />
        </g>
        <path
           d="M 755.366,654.292 H 324.633 v 91.582 h 430.733 z"
           style="fill:#fc0000;fill-opacity:1;fill-rule:nonzero;stroke:none"
           id="path186" />
        <g
           id="g188"
           transform="translate(523.8682,696.5513)">
          <path
             d="M 0,0 H -158.406"
             style="fill:none;stroke:#ffffff;stroke-width:5.747;stroke-linecap:round;stroke-linejoin:round;stroke-miterlimit:10;stroke-dasharray:none;stroke-opacity:1"
             id="path190" />
        </g>
        <g
           id="g192"
           transform="translate(683.8433,696.5513)">
          <path
             d="m 0,0 c 0,-3.92 -3.178,-7.098 -7.098,-7.098 -3.92,0 -7.098,3.178 -7.098,7.098 0,3.92 3.178,7.098 7.098,7.098 C -3.178,7.098 0,3.92 0,0"
             style="fill:#ffffff;fill-opacity:1;fill-rule:nonzero;stroke:none"
             id="path194" />
        </g>
        <g
           id="g196"
           transform="translate(712.8213,696.5513)">
          <path
             d="m 0,0 c 0,-3.92 -3.178,-7.098 -7.098,-7.098 -3.92,0 -7.097,3.178 -7.097,7.098 0,3.92 3.177,7.098 7.097,7.098 C -3.178,7.098 0,3.92 0,0"
             style="fill:#ffffff;fill-opacity:1;fill-rule:nonzero;stroke:none"
             id="path198" />
        </g>
      </g>
    </g>
  </g>
</svg>
