<?xml version="1.0" encoding="UTF-8" standalone="no"?>
<!-- Created with Inkscape (http://www.inkscape.org/) -->

<svg
   version="1.1"
   id="svg2"
   width="1131.1497"
   height="1201.1268"
   viewBox="0 0 1131.1497 1201.1268"
   sodipodi:docname="Cloud-Native-Minispot-Technology-illustration-quote.ai"
   xmlns:inkscape="http://www.inkscape.org/namespaces/inkscape"
   xmlns:sodipodi="http://sodipodi.sourceforge.net/DTD/sodipodi-0.dtd"
   xmlns="http://www.w3.org/2000/svg"
   xmlns:svg="http://www.w3.org/2000/svg">
  <defs
     id="defs6">
    <clipPath
       clipPathUnits="userSpaceOnUse"
       id="clipPath18">
      <path
         d="M 0,1080 H 1080 V 0 H 0 Z"
         id="path16" />
    </clipPath>
    <pattern
       patternTransform="matrix(3.53217,0,0,3.53217,20122.057,-23930.037)"
       patternUnits="userSpaceOnUse"
       x="0"
       y="0"
       width="28.7998"
       height="28.8008"
       id="pattern90">
      <g
         transform="translate(28.7996,-1.4396)"
         id="g40">
        <path
           d="m 0,0 c 0.795,0 1.439,0.645 1.439,1.439 0,0.795 -0.644,1.44 -1.439,1.44 -0.796,0 -1.44,-0.645 -1.44,-1.44 C -1.44,0.645 -0.796,0 0,0"
           style="fill:#e70000;fill-opacity:1;fill-rule:nonzero;stroke:none"
           id="path38" />
      </g>
      <g
         transform="translate(14.3992,-1.4396)"
         id="g44">
        <path
           d="m 0,0 c 0.795,0 1.441,0.645 1.441,1.439 0,0.795 -0.646,1.44 -1.441,1.44 -0.796,0 -1.439,-0.645 -1.439,-1.44 C -1.439,0.645 -0.796,0 0,0"
           style="fill:#e70000;fill-opacity:1;fill-rule:nonzero;stroke:none"
           id="path42" />
      </g>
      <g
         transform="translate(28.7996,12.9588)"
         id="g48">
        <path
           d="m 0,0 c 0.795,0 1.439,0.646 1.439,1.441 0,0.795 -0.644,1.44 -1.439,1.44 -0.796,0 -1.44,-0.645 -1.44,-1.44 C -1.44,0.646 -0.796,0 0,0"
           style="fill:#e70000;fill-opacity:1;fill-rule:nonzero;stroke:none"
           id="path46" />
      </g>
      <g
         transform="translate(14.3992,12.9588)"
         id="g52">
        <path
           d="m 0,0 c 0.795,0 1.441,0.646 1.441,1.441 0,0.795 -0.646,1.44 -1.441,1.44 -0.796,0 -1.439,-0.645 -1.439,-1.44 C -1.439,0.646 -0.796,0 0,0"
           style="fill:#e70000;fill-opacity:1;fill-rule:nonzero;stroke:none"
           id="path50" />
      </g>
      <g
         transform="translate(7.199,5.7597)"
         id="g56">
        <path
           d="M 0,0 C 0.795,0 1.44,0.645 1.44,1.439 1.44,2.236 0.795,2.881 0,2.881 -0.796,2.881 -1.439,2.236 -1.439,1.439 -1.439,0.645 -0.796,0 0,0"
           style="fill:#e70000;fill-opacity:1;fill-rule:nonzero;stroke:none"
           id="path54" />
      </g>
      <g
         transform="translate(21.5994,5.7597)"
         id="g60">
        <path
           d="M 0,0 C 0.795,0 1.44,0.645 1.44,1.439 1.44,2.236 0.795,2.881 0,2.881 -0.796,2.881 -1.44,2.236 -1.44,1.439 -1.44,0.645 -0.796,0 0,0"
           style="fill:#e70000;fill-opacity:1;fill-rule:nonzero;stroke:none"
           id="path58" />
      </g>
      <g
         transform="translate(7.199,20.16)"
         id="g64">
        <path
           d="M 0,0 C 0.795,0 1.44,0.645 1.44,1.439 1.44,2.236 0.795,2.881 0,2.881 -0.796,2.881 -1.439,2.236 -1.439,1.439 -1.439,0.645 -0.796,0 0,0"
           style="fill:#e70000;fill-opacity:1;fill-rule:nonzero;stroke:none"
           id="path62" />
      </g>
      <g
         transform="translate(21.5994,20.16)"
         id="g68">
        <path
           d="M 0,0 C 0.795,0 1.44,0.645 1.44,1.439 1.44,2.236 0.795,2.881 0,2.881 -0.796,2.881 -1.44,2.236 -1.44,1.439 -1.44,0.645 -0.796,0 0,0"
           style="fill:#e70000;fill-opacity:1;fill-rule:nonzero;stroke:none"
           id="path66" />
      </g>
      <g
         transform="translate(-2e-4,-1.4396)"
         id="g72">
        <path
           d="m 0,0 c 0.795,0 1.439,0.645 1.439,1.439 0,0.795 -0.644,1.44 -1.439,1.44 -0.796,0 -1.44,-0.645 -1.44,-1.44 C -1.44,0.645 -0.796,0 0,0"
           style="fill:#e70000;fill-opacity:1;fill-rule:nonzero;stroke:none"
           id="path70" />
      </g>
      <g
         transform="translate(-2e-4,12.9588)"
         id="g76">
        <path
           d="m 0,0 c 0.795,0 1.439,0.646 1.439,1.441 0,0.795 -0.644,1.44 -1.439,1.44 -0.796,0 -1.44,-0.645 -1.44,-1.44 C -1.44,0.646 -0.796,0 0,0"
           style="fill:#e70000;fill-opacity:1;fill-rule:nonzero;stroke:none"
           id="path74" />
      </g>
      <g
         transform="translate(28.7996,27.3612)"
         id="g80">
        <path
           d="m 0,0 c 0.795,0 1.439,0.645 1.439,1.439 0,0.795 -0.644,1.44 -1.439,1.44 -0.796,0 -1.44,-0.645 -1.44,-1.44 C -1.44,0.645 -0.796,0 0,0"
           style="fill:#e70000;fill-opacity:1;fill-rule:nonzero;stroke:none"
           id="path78" />
      </g>
      <g
         transform="translate(14.3992,27.3612)"
         id="g84">
        <path
           d="m 0,0 c 0.795,0 1.441,0.645 1.441,1.439 0,0.795 -0.646,1.44 -1.441,1.44 -0.796,0 -1.439,-0.645 -1.439,-1.44 C -1.439,0.645 -0.796,0 0,0"
           style="fill:#e70000;fill-opacity:1;fill-rule:nonzero;stroke:none"
           id="path82" />
      </g>
      <g
         transform="translate(-2e-4,27.3612)"
         id="g88">
        <path
           d="m 0,0 c 0.795,0 1.439,0.645 1.439,1.439 0,0.795 -0.644,1.44 -1.439,1.44 -0.796,0 -1.44,-0.645 -1.44,-1.44 C -1.44,0.645 -0.796,0 0,0"
           style="fill:#e70000;fill-opacity:1;fill-rule:nonzero;stroke:none"
           id="path86" />
      </g>
    </pattern>
  </defs>
  <sodipodi:namedview
     id="namedview4"
     pagecolor="#ffffff"
     bordercolor="#000000"
     borderopacity="0.25"
     inkscape:showpageshadow="2"
     inkscape:pageopacity="0.0"
     inkscape:pagecheckerboard="0"
     inkscape:deskcolor="#d1d1d1"
     showgrid="false" />
  <g
     id="g10"
     inkscape:groupmode="layer"
     inkscape:label="Page 1"
     transform="matrix(1.3333333,0,0,-1.3333333,-155.02226,1308.9092)">
    <g
       id="g12">
      <g
         id="g14"
         clip-path="url(#clipPath18)">
        <g
           id="g20"
           transform="translate(528.6431,747.1372)">
          <path
             d="m 0,0 24.527,42.481 c 2.001,3.466 -0.501,7.798 -4.502,7.798 h -49.054 c -4.002,0 -6.503,-4.332 -4.502,-7.798 L -9.004,0 C -7.003,-3.466 -2.001,-3.466 0,0"
             style="fill:#ffffff;fill-opacity:1;fill-rule:nonzero;stroke:none"
             id="path22" />
        </g>
        <g
           id="g24"
           transform="translate(180.48,453)">
          <path
             d="m 0,0 v -221.625 h 678.549 l -7.862,621.211 H 0 V 48.064"
             style="fill:#ffffff;fill-opacity:1;fill-rule:nonzero;stroke:none"
             id="path26" />
        </g>
        <g
           id="g28"
           transform="translate(859.6064,527.5)">
          <path
             d="M 0,0 V -297.307 H -678.549 V -72.5"
             style="fill:none;stroke:#ee0000;stroke-width:4.838;stroke-linecap:round;stroke-linejoin:miter;stroke-miterlimit:10;stroke-dasharray:none;stroke-opacity:1"
             id="path30" />
        </g>
        <g
           id="g32"
           transform="translate(181.0576,504)">
          <path
             d="M 0,0 V 347.403 H 678.549 V 73"
             style="fill:none;stroke:#ee0000;stroke-width:4.838;stroke-linecap:butt;stroke-linejoin:miter;stroke-miterlimit:10;stroke-dasharray:none;stroke-opacity:1"
             id="path34" />
        </g>
        <g
           id="g36"
           transform="translate(855.2412,231.3374)">
          <path
             d="M 0,0 H -681.323 L -11.832,619.469 2.255,617 Z"
             style="fill:url(#pattern90);fill-opacity:1;fill-rule:nonzero;stroke:none"
             id="path92" />
        </g>
        <path
           d="M 859.606,719.59 H 181.057 v 131.813 h 678.549 z"
           style="fill:#ee0000;fill-opacity:1;fill-rule:nonzero;stroke:#ee0000;stroke-width:4.838;stroke-linecap:butt;stroke-linejoin:miter;stroke-miterlimit:10;stroke-dasharray:none;stroke-opacity:1"
           id="path94" />
        <g
           id="g96"
           transform="translate(677.2817,786.3159)">
          <path
             d="M 0,0 C 0,11.937 9.677,21.613 21.613,21.613 33.55,21.613 43.226,11.937 43.226,0 43.226,-11.937 33.55,-21.613 21.613,-21.613 9.677,-21.613 0,-11.937 0,0"
             style="fill:#ffffff;fill-opacity:1;fill-rule:nonzero;stroke:none"
             id="path98" />
        </g>
        <g
           id="g100"
           transform="translate(761.0566,786.3159)">
          <path
             d="M 0,0 C 0,11.937 9.677,21.613 21.613,21.613 33.55,21.613 43.227,11.937 43.227,0 43.227,-11.937 33.55,-21.613 21.613,-21.613 9.677,-21.613 0,-11.937 0,0"
             style="fill:#ffffff;fill-opacity:1;fill-rule:nonzero;stroke:none"
             id="path102" />
        </g>
        <g
           id="g104"
           transform="translate(855.4141,550.7222)">
          <path
             d="M 0,0 C -33.225,-20.363 -72.307,-32.103 -114.132,-32.103 H -270.713"
             style="fill:none;stroke:#ffffff;stroke-width:36;stroke-linecap:butt;stroke-linejoin:miter;stroke-miterlimit:10;stroke-dasharray:none;stroke-opacity:1"
             id="path106" />
        </g>
        <g
           id="g108"
           transform="translate(465.1172,547.2715)">
          <path
             d="m 0,0 h -152.608 c -83.267,0 -155.665,-46.53 -192.614,-115.007"
             style="fill:none;stroke:#ee0000;stroke-width:7.257;stroke-linecap:round;stroke-linejoin:miter;stroke-miterlimit:10;stroke-dasharray:none;stroke-opacity:1"
             id="path110" />
        </g>
        <g
           id="g112"
           transform="translate(523.5654,759.3364)">
          <path
             d="m 0,0 c 0,29.902 6,58.403 16.863,84.363 1.329,3.175 2.73,6.312 4.201,9.408 35.111,73.875 110.418,124.946 197.653,124.946 120.795,0 218.718,-97.923 218.718,-218.717 0,-120.794 -97.923,-218.717 -218.718,-218.717 H 62.135"
             style="fill:none;stroke:#ee0000;stroke-width:7.257;stroke-linecap:butt;stroke-linejoin:miter;stroke-miterlimit:10;stroke-dasharray:none;stroke-opacity:1"
             id="path114" />
        </g>
        <g
           id="g116"
           transform="translate(553.1699,783.5708)">
          <path
             d="m 0,0 c 2.001,3.466 -0.5,7.798 -4.502,7.798 h -49.054 c -4.002,0 -6.503,-4.332 -4.502,-7.798 l 24.527,-42.481 c 2.001,-3.466 7.003,-3.466 9.004,0"
             style="fill:#ffffff;fill-opacity:1;fill-rule:nonzero;stroke:none"
             id="path118" />
        </g>
        <g
           id="g120"
           transform="translate(523.5654,759.3364)">
          <path
             d="m 0,0 c 0,29.902 6,58.403 16.863,84.363 1.329,3.175 2.73,6.312 4.201,9.408"
             style="fill:none;stroke:#ffffff;stroke-width:4.838;stroke-linecap:butt;stroke-linejoin:miter;stroke-miterlimit:10;stroke-dasharray:none;stroke-opacity:1"
             id="path122" />
        </g>
        <g
           id="g124"
           transform="translate(824.2256,356.502)">
          <path
             d="m 0,0 c -10.864,0 -21.266,-1.979 -30.869,-5.589 -20.282,37.626 -59.196,63.723 -104.39,65.934 -25.542,74.247 -95.991,127.601 -178.908,127.601 -73.29,0 -136.84,-41.683 -168.249,-102.633 -13.12,3.961 -27.031,6.1 -41.443,6.1 -79.063,0 -143.158,-64.094 -143.158,-143.157 0,-79.064 64.095,-143.158 143.158,-143.158 H -7.648 c 66.743,0 95.409,58.672 95.409,107.141 C 87.761,-39.292 48.469,0 0,0"
             style="fill:#ee0000;fill-opacity:1;fill-rule:nonzero;stroke:none"
             id="path126" />
        </g>
        <g
           id="g128"
           transform="translate(817.5605,380.0342)">
          <path
             d="m 0,0 c -10.864,0 -21.266,-1.979 -30.869,-5.589 -20.282,37.627 -59.196,63.724 -104.39,65.934 -25.542,74.247 -95.991,127.601 -178.908,127.601 -73.29,0 -136.84,-41.683 -168.249,-102.633 -13.12,3.962 -27.031,6.1 -41.443,6.1 -79.063,0 -143.158,-64.094 -143.158,-143.157 0,-79.063 64.095,-143.157 143.158,-143.157 H -7.648 c 66.743,0 95.409,58.672 95.409,107.141 C 87.761,-39.291 48.469,0 0,0"
             style="fill:#ffffff;fill-opacity:1;fill-rule:nonzero;stroke:none"
             id="path130" />
        </g>
        <g
           id="g132"
           transform="translate(817.5605,380.0342)">
          <path
             d="m 0,0 c -10.864,0 -21.266,-1.979 -30.869,-5.589 -20.282,37.627 -59.196,63.724 -104.39,65.934 -25.542,74.247 -95.991,127.601 -178.908,127.601 -73.29,0 -136.84,-41.683 -168.249,-102.633 -13.12,3.962 -27.031,6.1 -41.443,6.1 -79.063,0 -143.158,-64.094 -143.158,-143.157 0,-79.063 64.095,-143.157 143.158,-143.157 H -7.648 c 66.743,0 95.409,58.672 95.409,107.141 C 87.761,-39.291 48.469,0 0,0 Z"
             style="fill:none;stroke:#ee0000;stroke-width:4.498;stroke-linecap:butt;stroke-linejoin:miter;stroke-miterlimit:10;stroke-dasharray:none;stroke-opacity:1"
             id="path134" />
        </g>
        <g
           id="g136"
           transform="translate(163.8271,168.0908)">
          <path
             d="m 0,0 c 17.186,-18.353 37.498,-33.741 60.088,-45.315 29.871,-15.304 63.724,-23.939 99.594,-23.939 120.794,0 218.717,97.923 218.717,218.717"
             style="fill:none;stroke:#ffffff;stroke-width:36;stroke-linecap:butt;stroke-linejoin:miter;stroke-miterlimit:10;stroke-dasharray:none;stroke-opacity:1"
             id="path138" />
        </g>
        <g
           id="g140"
           transform="translate(152.8271,179.0908)">
          <path
             d="m 0,0 c 17.186,-18.353 37.498,-33.741 60.088,-45.315 29.871,-15.304 63.724,-23.939 99.594,-23.939 120.794,0 218.717,97.923 218.717,218.717"
             style="fill:none;stroke:#ee0000;stroke-width:7.257;stroke-linecap:round;stroke-linejoin:miter;stroke-miterlimit:10;stroke-dasharray:none;stroke-opacity:1"
             id="path142" />
        </g>
        <g
           id="g144"
           transform="translate(526.8965,369.2021)">
          <path
             d="m 0,0 -24.527,-42.481 c -2.001,-3.466 0.5,-7.799 4.502,-7.799 h 49.054 c 4.002,0 6.503,4.333 4.502,7.798 L 9.004,0 C 7.003,3.465 2.001,3.465 0,0"
             style="fill:#ee0000;fill-opacity:1;fill-rule:nonzero;stroke:none"
             id="path146" />
        </g>
      </g>
    </g>
    <text
       xml:space="preserve"
       transform="matrix(1,0,0,-1,29.9312,987.8435)"
       style="font-variant:normal;font-weight:bold;font-stretch:normal;font-size:48px;font-family:'Red Hat Display';-inkscape-font-specification:RedHatDisplay-Bold;writing-mode:lr-tb;fill:#000000;fill-opacity:1;fill-rule:nonzero;stroke:none"
       id="text150"><tspan
         x="0 31.488001 58.655998 86.304001 95.952003 122.592 142.51199"
         y="0"
         sodipodi:role="line"
         id="tspan148">Key art</tspan></text>
  </g>
</svg>
