<?xml version="1.0" encoding="UTF-8" standalone="no"?>
<!-- Created with Inkscape (http://www.inkscape.org/) -->

<svg
   version="1.1"
   id="svg2"
   width="1440"
   height="1440"
   viewBox="0 0 1440 1440"
   sodipodi:docname="Digital-Transformation-Minispot-Technology-illustration-quote.ai"
   xmlns:inkscape="http://www.inkscape.org/namespaces/inkscape"
   xmlns:sodipodi="http://sodipodi.sourceforge.net/DTD/sodipodi-0.dtd"
   xmlns="http://www.w3.org/2000/svg"
   xmlns:svg="http://www.w3.org/2000/svg">
  <defs
     id="defs6">
    <clipPath
       clipPathUnits="userSpaceOnUse"
       id="clipPath18">
      <path
         d="M 0,1080 H 1080 V 0 H 0 Z"
         id="path16" />
    </clipPath>
    <pattern
       patternTransform="matrix(2.40421,0,0,2.40421,10699.12,-14297.03)"
       patternUnits="userSpaceOnUse"
       x="0"
       y="0"
       width="28.7998"
       height="28.8008"
       id="pattern126">
      <g
         transform="translate(28.7996,-1.4397)"
         id="g76">
        <path
           d="m 0,0 c 0.795,0 1.439,0.645 1.439,1.439 0,0.795 -0.644,1.44 -1.439,1.44 -0.796,0 -1.44,-0.645 -1.44,-1.44 C -1.44,0.645 -0.796,0 0,0"
           style="fill:#ee0000;fill-opacity:1;fill-rule:nonzero;stroke:none"
           id="path74" />
      </g>
      <g
         transform="translate(14.3992,-1.4397)"
         id="g80">
        <path
           d="m 0,0 c 0.795,0 1.441,0.645 1.441,1.439 0,0.795 -0.646,1.44 -1.441,1.44 -0.796,0 -1.439,-0.645 -1.439,-1.44 C -1.439,0.645 -0.796,0 0,0"
           style="fill:#ee0000;fill-opacity:1;fill-rule:nonzero;stroke:none"
           id="path78" />
      </g>
      <g
         transform="translate(28.7996,12.9588)"
         id="g84">
        <path
           d="m 0,0 c 0.795,0 1.439,0.646 1.439,1.441 0,0.795 -0.644,1.44 -1.439,1.44 -0.796,0 -1.44,-0.645 -1.44,-1.44 C -1.44,0.646 -0.796,0 0,0"
           style="fill:#ee0000;fill-opacity:1;fill-rule:nonzero;stroke:none"
           id="path82" />
      </g>
      <g
         transform="translate(14.3992,12.9588)"
         id="g88">
        <path
           d="m 0,0 c 0.795,0 1.441,0.646 1.441,1.441 0,0.795 -0.646,1.44 -1.441,1.44 -0.796,0 -1.439,-0.645 -1.439,-1.44 C -1.439,0.646 -0.796,0 0,0"
           style="fill:#ee0000;fill-opacity:1;fill-rule:nonzero;stroke:none"
           id="path86" />
      </g>
      <g
         transform="translate(7.199,5.7596)"
         id="g92">
        <path
           d="M 0,0 C 0.795,0 1.44,0.645 1.44,1.439 1.44,2.236 0.795,2.881 0,2.881 -0.796,2.881 -1.439,2.236 -1.439,1.439 -1.439,0.645 -0.796,0 0,0"
           style="fill:#ee0000;fill-opacity:1;fill-rule:nonzero;stroke:none"
           id="path90" />
      </g>
      <g
         transform="translate(21.5994,5.7596)"
         id="g96">
        <path
           d="M 0,0 C 0.795,0 1.441,0.645 1.441,1.439 1.441,2.236 0.795,2.881 0,2.881 -0.796,2.881 -1.44,2.236 -1.44,1.439 -1.44,0.645 -0.796,0 0,0"
           style="fill:#ee0000;fill-opacity:1;fill-rule:nonzero;stroke:none"
           id="path94" />
      </g>
      <g
         transform="translate(7.199,20.1599)"
         id="g100">
        <path
           d="M 0,0 C 0.795,0 1.44,0.645 1.44,1.439 1.44,2.236 0.795,2.881 0,2.881 -0.796,2.881 -1.439,2.236 -1.439,1.439 -1.439,0.645 -0.796,0 0,0"
           style="fill:#ee0000;fill-opacity:1;fill-rule:nonzero;stroke:none"
           id="path98" />
      </g>
      <g
         transform="translate(21.5994,20.1599)"
         id="g104">
        <path
           d="M 0,0 C 0.795,0 1.441,0.645 1.441,1.439 1.441,2.236 0.795,2.881 0,2.881 -0.796,2.881 -1.44,2.236 -1.44,1.439 -1.44,0.645 -0.796,0 0,0"
           style="fill:#ee0000;fill-opacity:1;fill-rule:nonzero;stroke:none"
           id="path102" />
      </g>
      <g
         transform="translate(-2e-4,-1.4397)"
         id="g108">
        <path
           d="m 0,0 c 0.795,0 1.439,0.645 1.439,1.439 0,0.795 -0.644,1.44 -1.439,1.44 -0.796,0 -1.44,-0.645 -1.44,-1.44 C -1.44,0.645 -0.796,0 0,0"
           style="fill:#ee0000;fill-opacity:1;fill-rule:nonzero;stroke:none"
           id="path106" />
      </g>
      <g
         transform="translate(-2e-4,12.9588)"
         id="g112">
        <path
           d="m 0,0 c 0.795,0 1.439,0.646 1.439,1.441 0,0.795 -0.644,1.44 -1.439,1.44 -0.796,0 -1.44,-0.645 -1.44,-1.44 C -1.44,0.646 -0.796,0 0,0"
           style="fill:#ee0000;fill-opacity:1;fill-rule:nonzero;stroke:none"
           id="path110" />
      </g>
      <g
         transform="translate(28.7996,27.3611)"
         id="g116">
        <path
           d="m 0,0 c 0.795,0 1.439,0.645 1.439,1.439 0,0.795 -0.644,1.44 -1.439,1.44 -0.796,0 -1.44,-0.645 -1.44,-1.44 C -1.44,0.645 -0.796,0 0,0"
           style="fill:#ee0000;fill-opacity:1;fill-rule:nonzero;stroke:none"
           id="path114" />
      </g>
      <g
         transform="translate(14.3992,27.3611)"
         id="g120">
        <path
           d="m 0,0 c 0.795,0 1.441,0.645 1.441,1.439 0,0.795 -0.646,1.44 -1.441,1.44 -0.796,0 -1.439,-0.645 -1.439,-1.44 C -1.439,0.645 -0.796,0 0,0"
           style="fill:#ee0000;fill-opacity:1;fill-rule:nonzero;stroke:none"
           id="path118" />
      </g>
      <g
         transform="translate(-2e-4,27.3611)"
         id="g124">
        <path
           d="m 0,0 c 0.795,0 1.439,0.645 1.439,1.439 0,0.795 -0.644,1.44 -1.439,1.44 -0.796,0 -1.44,-0.645 -1.44,-1.44 C -1.44,0.645 -0.796,0 0,0"
           style="fill:#ee0000;fill-opacity:1;fill-rule:nonzero;stroke:none"
           id="path122" />
      </g>
    </pattern>
    <pattern
       patternTransform="matrix(2.82022,0,0,2.82022,13915.82,-17579.23)"
       patternUnits="userSpaceOnUse"
       x="0"
       y="0"
       width="28.7998"
       height="28.8008"
       id="pattern188">
      <g
         transform="translate(28.7996,-1.4397)"
         id="g138">
        <path
           d="m 0,0 c 0.795,0 1.439,0.645 1.439,1.439 0,0.795 -0.644,1.44 -1.439,1.44 -0.796,0 -1.44,-0.645 -1.44,-1.44 C -1.44,0.645 -0.796,0 0,0"
           style="fill:#ee0000;fill-opacity:1;fill-rule:nonzero;stroke:none"
           id="path136" />
      </g>
      <g
         transform="translate(14.3992,-1.4397)"
         id="g142">
        <path
           d="m 0,0 c 0.795,0 1.441,0.645 1.441,1.439 0,0.795 -0.646,1.44 -1.441,1.44 -0.796,0 -1.439,-0.645 -1.439,-1.44 C -1.439,0.645 -0.796,0 0,0"
           style="fill:#ee0000;fill-opacity:1;fill-rule:nonzero;stroke:none"
           id="path140" />
      </g>
      <g
         transform="translate(28.7996,12.9588)"
         id="g146">
        <path
           d="m 0,0 c 0.795,0 1.439,0.646 1.439,1.441 0,0.795 -0.644,1.44 -1.439,1.44 -0.796,0 -1.44,-0.645 -1.44,-1.44 C -1.44,0.646 -0.796,0 0,0"
           style="fill:#ee0000;fill-opacity:1;fill-rule:nonzero;stroke:none"
           id="path144" />
      </g>
      <g
         transform="translate(14.3992,12.9588)"
         id="g150">
        <path
           d="m 0,0 c 0.795,0 1.441,0.646 1.441,1.441 0,0.795 -0.646,1.44 -1.441,1.44 -0.796,0 -1.439,-0.645 -1.439,-1.44 C -1.439,0.646 -0.796,0 0,0"
           style="fill:#ee0000;fill-opacity:1;fill-rule:nonzero;stroke:none"
           id="path148" />
      </g>
      <g
         transform="translate(7.199,5.7596)"
         id="g154">
        <path
           d="M 0,0 C 0.795,0 1.44,0.645 1.44,1.439 1.44,2.236 0.795,2.881 0,2.881 -0.796,2.881 -1.439,2.236 -1.439,1.439 -1.439,0.645 -0.796,0 0,0"
           style="fill:#ee0000;fill-opacity:1;fill-rule:nonzero;stroke:none"
           id="path152" />
      </g>
      <g
         transform="translate(21.5994,5.7596)"
         id="g158">
        <path
           d="M 0,0 C 0.795,0 1.441,0.645 1.441,1.439 1.441,2.236 0.795,2.881 0,2.881 -0.796,2.881 -1.44,2.236 -1.44,1.439 -1.44,0.645 -0.796,0 0,0"
           style="fill:#ee0000;fill-opacity:1;fill-rule:nonzero;stroke:none"
           id="path156" />
      </g>
      <g
         transform="translate(7.199,20.1599)"
         id="g162">
        <path
           d="M 0,0 C 0.795,0 1.44,0.645 1.44,1.439 1.44,2.236 0.795,2.881 0,2.881 -0.796,2.881 -1.439,2.236 -1.439,1.439 -1.439,0.645 -0.796,0 0,0"
           style="fill:#ee0000;fill-opacity:1;fill-rule:nonzero;stroke:none"
           id="path160" />
      </g>
      <g
         transform="translate(21.5994,20.1599)"
         id="g166">
        <path
           d="M 0,0 C 0.795,0 1.441,0.645 1.441,1.439 1.441,2.236 0.795,2.881 0,2.881 -0.796,2.881 -1.44,2.236 -1.44,1.439 -1.44,0.645 -0.796,0 0,0"
           style="fill:#ee0000;fill-opacity:1;fill-rule:nonzero;stroke:none"
           id="path164" />
      </g>
      <g
         transform="translate(-2e-4,-1.4397)"
         id="g170">
        <path
           d="m 0,0 c 0.795,0 1.439,0.645 1.439,1.439 0,0.795 -0.644,1.44 -1.439,1.44 -0.796,0 -1.44,-0.645 -1.44,-1.44 C -1.44,0.645 -0.796,0 0,0"
           style="fill:#ee0000;fill-opacity:1;fill-rule:nonzero;stroke:none"
           id="path168" />
      </g>
      <g
         transform="translate(-2e-4,12.9588)"
         id="g174">
        <path
           d="m 0,0 c 0.795,0 1.439,0.646 1.439,1.441 0,0.795 -0.644,1.44 -1.439,1.44 -0.796,0 -1.44,-0.645 -1.44,-1.44 C -1.44,0.646 -0.796,0 0,0"
           style="fill:#ee0000;fill-opacity:1;fill-rule:nonzero;stroke:none"
           id="path172" />
      </g>
      <g
         transform="translate(28.7996,27.3611)"
         id="g178">
        <path
           d="m 0,0 c 0.795,0 1.439,0.645 1.439,1.439 0,0.795 -0.644,1.44 -1.439,1.44 -0.796,0 -1.44,-0.645 -1.44,-1.44 C -1.44,0.645 -0.796,0 0,0"
           style="fill:#ee0000;fill-opacity:1;fill-rule:nonzero;stroke:none"
           id="path176" />
      </g>
      <g
         transform="translate(14.3992,27.3611)"
         id="g182">
        <path
           d="m 0,0 c 0.795,0 1.441,0.645 1.441,1.439 0,0.795 -0.646,1.44 -1.441,1.44 -0.796,0 -1.439,-0.645 -1.439,-1.44 C -1.439,0.645 -0.796,0 0,0"
           style="fill:#ee0000;fill-opacity:1;fill-rule:nonzero;stroke:none"
           id="path180" />
      </g>
      <g
         transform="translate(-2e-4,27.3611)"
         id="g186">
        <path
           d="m 0,0 c 0.795,0 1.439,0.645 1.439,1.439 0,0.795 -0.644,1.44 -1.439,1.44 -0.796,0 -1.44,-0.645 -1.44,-1.44 C -1.44,0.645 -0.796,0 0,0"
           style="fill:#ee0000;fill-opacity:1;fill-rule:nonzero;stroke:none"
           id="path184" />
      </g>
    </pattern>
  </defs>
  <sodipodi:namedview
     id="namedview4"
     pagecolor="#ffffff"
     bordercolor="#000000"
     borderopacity="0.25"
     inkscape:showpageshadow="2"
     inkscape:pageopacity="0.0"
     inkscape:pagecheckerboard="0"
     inkscape:deskcolor="#d1d1d1"
     showgrid="false"
     inkscape:zoom="0.71319444"
     inkscape:cx="719.29893"
     inkscape:cy="719.29893"
     inkscape:window-width="2880"
     inkscape:window-height="1551"
     inkscape:window-x="0"
     inkscape:window-y="32"
     inkscape:window-maximized="1"
     inkscape:current-layer="g10" />
  <g
     id="g10"
     inkscape:groupmode="layer"
     inkscape:label="Page 1"
     transform="matrix(1.3333333,0,0,-1.3333333,0,1440)">
    <g
       id="g12">
      <g
         id="g14"
         clip-path="url(#clipPath18)">
        <g
           id="g20"
           transform="translate(367.7803,764.3296)">
          <path
             d="m 0,0 c 47.245,37.662 107.104,60.17 172.22,60.17 152.706,0 276.5,-123.793 276.5,-276.5 0,-86.557 -39.773,-163.824 -102.039,-214.524"
             style="fill:none;stroke:#ee0000;stroke-width:5;stroke-linecap:round;stroke-linejoin:round;stroke-miterlimit:10;stroke-dasharray:none;stroke-opacity:1"
             id="path22" />
        </g>
        <g
           id="g24"
           transform="translate(664.563,301.0806)">
          <path
             d="m 0,0 c -37.433,-18.921 -79.753,-29.581 -124.563,-29.581 -152.707,0 -276.5,123.794 -276.5,276.5 0,60.688 19.552,116.81 52.7,162.409"
             style="fill:none;stroke:#ee0000;stroke-width:5;stroke-linecap:round;stroke-linejoin:round;stroke-miterlimit:10;stroke-dasharray:none;stroke-opacity:1"
             id="path26" />
        </g>
        <g
           id="g28"
           transform="translate(724.5,409.5)">
          <path
             d="M 0,0 -10,-76 H 65"
             style="fill:none;stroke:#ee0000;stroke-width:5;stroke-linecap:round;stroke-linejoin:round;stroke-miterlimit:10;stroke-dasharray:none;stroke-opacity:1"
             id="path30" />
        </g>
        <g
           id="g32"
           transform="translate(329.1987,638.9258)">
          <path
             d="M 0,0 -12.1,75.694 -83.982,54.295"
             style="fill:none;stroke:#ee0000;stroke-width:5;stroke-linecap:round;stroke-linejoin:round;stroke-miterlimit:10;stroke-dasharray:none;stroke-opacity:1"
             id="path34" />
        </g>
        <g
           id="g36"
           transform="translate(266,822.5)">
          <path
             d="M 0,0 C 0,22.92 18.58,41.5 41.5,41.5 64.42,41.5 83,22.92 83,0 83,-22.92 64.42,-41.5 41.5,-41.5 18.58,-41.5 0,-22.92 0,0 Z"
             style="fill:none;stroke:#ee0000;stroke-width:5;stroke-linecap:round;stroke-linejoin:round;stroke-miterlimit:10;stroke-dasharray:none;stroke-opacity:1"
             id="path38" />
        </g>
        <g
           id="g40"
           transform="translate(351.5,228)">
          <path
             d="M 0,0 C 0,15.74 12.76,28.5 28.5,28.5 44.24,28.5 57,15.74 57,0 57,-15.74 44.24,-28.5 28.5,-28.5 12.76,-28.5 0,-15.74 0,0 Z"
             style="fill:none;stroke:#ee0000;stroke-width:5;stroke-linecap:round;stroke-linejoin:round;stroke-miterlimit:10;stroke-dasharray:none;stroke-opacity:1"
             id="path42" />
        </g>
        <g
           id="g44"
           transform="translate(826.5,352)">
          <path
             d="M 0,0 C 0,24.024 19.476,43.5 43.5,43.5 67.524,43.5 87,24.024 87,0 87,-24.024 67.524,-43.5 43.5,-43.5 19.476,-43.5 0,-24.024 0,0"
             style="fill:#ee0000;fill-opacity:1;fill-rule:nonzero;stroke:none"
             id="path46" />
        </g>
        <g
           id="g48"
           transform="translate(724.5,664.75)">
          <path
             d="M 0,0 C 0,56.195 45.555,101.75 101.75,101.75 157.945,101.75 203.5,56.195 203.5,0 203.5,-56.195 157.945,-101.75 101.75,-101.75 45.555,-101.75 0,-56.195 0,0"
             style="fill:#ee0000;fill-opacity:1;fill-rule:nonzero;stroke:none"
             id="path50" />
        </g>
        <g
           id="g52"
           transform="translate(146,512)">
          <path
             d="M 0,0 C 0,45.84 37.16,83 83,83 128.84,83 166,45.84 166,0 166,-45.84 128.84,-83 83,-83 37.16,-83 0,-45.84 0,0"
             style="fill:#ee0000;fill-opacity:1;fill-rule:nonzero;stroke:none"
             id="path54" />
        </g>
        <g
           id="g56"
           transform="translate(483,466)">
          <path
             d="M 0,0 116,172"
             style="fill:none;stroke:#ee0000;stroke-width:17;stroke-linecap:round;stroke-linejoin:miter;stroke-miterlimit:10;stroke-dasharray:none;stroke-opacity:1"
             id="path58" />
        </g>
        <g
           id="g60"
           transform="translate(627.5,615.5)">
          <path
             d="M 0,0 79,-63 0,-125"
             style="fill:none;stroke:#ee0000;stroke-width:17;stroke-linecap:round;stroke-linejoin:round;stroke-miterlimit:10;stroke-dasharray:none;stroke-opacity:1"
             id="path62" />
        </g>
        <g
           id="g64"
           transform="translate(456.7187,614.7656)">
          <path
             d="M 0,0 -79,-63 0,-125"
             style="fill:none;stroke:#ee0000;stroke-width:17;stroke-linecap:round;stroke-linejoin:round;stroke-miterlimit:10;stroke-dasharray:none;stroke-opacity:1"
             id="path66" />
        </g>
        <g
           id="g68"
           transform="translate(539,270)">
          <path
             d="m 0,0 c -152.707,0 -276.5,123.793 -276.5,276.5 0,61.412 20.033,118.139 53.905,164.028 C -264.551,392.735 -290,330.093 -290,261.5 -290,111.555 -168.445,-10 -18.5,-10 29.749,-10 75.049,2.602 114.314,24.67 79.473,8.829 40.769,0 0,0"
             style="fill:#ee0000;fill-opacity:1;fill-rule:nonzero;stroke:none"
             id="path70" />
        </g>
        <g
           id="g72"
           transform="translate(791.123,664.3442)">
          <path
             d="m 0,0 c 38.362,24.971 63.732,68.226 63.732,117.411 0,77.32 -62.68,140 -140,140 -63.571,0 -117.237,-42.375 -134.315,-100.416 C -116.968,143.362 -38.576,82.83 0,0"
             style="fill:url(#pattern126);fill-opacity:1;fill-rule:nonzero;stroke:none"
             id="path128" />
        </g>
        <g
           id="g130"
           transform="translate(791.123,664.3442)">
          <path
             d="m 0,0 c 38.362,24.971 63.732,68.226 63.732,117.411 0,77.32 -62.68,140 -140,140 -63.571,0 -117.237,-42.375 -134.315,-100.416 C -116.968,143.362 -38.576,82.83 0,0 Z"
             style="fill:none;stroke:#ee0000;stroke-width:5;stroke-linecap:butt;stroke-linejoin:miter;stroke-miterlimit:10;stroke-dasharray:none;stroke-opacity:1"
             id="path132" />
        </g>
        <g
           id="g134"
           transform="translate(264.8809,523.3892)">
          <path
             d="m 0,0 c -4.932,0.565 -9.943,0.866 -15.026,0.866 -72.073,0 -130.5,-58.427 -130.5,-130.5 0,-72.073 58.427,-130.5 130.5,-130.5 49.72,0 92.942,27.808 114.972,68.718 C 43.706,-145.093 6.091,-76.983 0,0"
             style="fill:url(#pattern188);fill-opacity:1;fill-rule:nonzero;stroke:none"
             id="path190" />
        </g>
        <g
           id="g192"
           transform="translate(264.8809,523.3892)">
          <path
             d="m 0,0 c -4.932,0.565 -9.943,0.866 -15.026,0.866 -72.073,0 -130.5,-58.427 -130.5,-130.5 0,-72.073 58.427,-130.5 130.5,-130.5 49.72,0 92.942,27.808 114.972,68.718 C 43.706,-145.093 6.091,-76.983 0,0 Z"
             style="fill:none;stroke:#ee0000;stroke-width:5.865;stroke-linecap:butt;stroke-linejoin:miter;stroke-miterlimit:10;stroke-dasharray:none;stroke-opacity:1"
             id="path194" />
        </g>
      </g>
    </g>
  </g>
</svg>
