<?xml version="1.0" encoding="UTF-8" standalone="no"?>
<!-- Created with Inkscape (http://www.inkscape.org/) -->

<svg
   width="210mm"
   height="210mm"
   viewBox="0 0 210 210"
   version="1.1"
   id="svg1293"
   inkscape:version="1.2.2 (b0a8486541, 2022-12-01)"
   sodipodi:docname="automation.svg"
   xmlns:inkscape="http://www.inkscape.org/namespaces/inkscape"
   xmlns:sodipodi="http://sodipodi.sourceforge.net/DTD/sodipodi-0.dtd"
   xmlns="http://www.w3.org/2000/svg"
   xmlns:svg="http://www.w3.org/2000/svg">
  <sodipodi:namedview
     id="namedview1295"
     pagecolor="#ffffff"
     bordercolor="#000000"
     borderopacity="0.25"
     inkscape:showpageshadow="2"
     inkscape:pageopacity="0.0"
     inkscape:pagecheckerboard="0"
     inkscape:deskcolor="#d1d1d1"
     inkscape:document-units="mm"
     showgrid="false"
     inkscape:zoom="0.914906"
     inkscape:cx="398.40158"
     inkscape:cy="560.71334"
     inkscape:window-width="3440"
     inkscape:window-height="1371"
     inkscape:window-x="0"
     inkscape:window-y="0"
     inkscape:window-maximized="1"
     inkscape:current-layer="layer1" />
  <defs
     id="defs1290">
    <clipPath
       clipPathUnits="userSpaceOnUse"
       id="clipPath18">
      <path
         d="M 0,1080 H 1080 V 0 H 0 Z"
         id="path16" />
    </clipPath>
    <clipPath
       clipPathUnits="userSpaceOnUse"
       id="clipPath44">
      <path
         d="M 260.709,676.696 H 465.622 V 859.625 H 260.709 Z"
         id="path42" />
    </clipPath>
    <clipPath
       clipPathUnits="userSpaceOnUse"
       id="clipPath56">
      <path
         d="M 0,1080 H 1080 V 0 H 0 Z"
         id="path54" />
    </clipPath>
    <clipPath
       clipPathUnits="userSpaceOnUse"
       id="clipPath116">
      <path
         d="m 95.092,295.402 c 4.271,-44.707 24.891,-86.398 53.764,-121.931 v 0 h 792.013 c 3.343,3.808 6.603,7.697 9.769,11.661 v 0 c 39.666,49.687 64.777,111.103 64.018,172.12 v 0 c -1.141,91.548 0,123.628 0,215.579 v 0 c -99.294,0 -846.158,0.794 -919.564,0.794 v 0 c 0,-117.06 -9.204,-181.841 0,-278.223"
         id="path114" />
    </clipPath>
    <clipPath
       clipPathUnits="userSpaceOnUse"
       id="clipPath156">
      <path
         d="M 0,1080 H 1080 V 0 H 0 Z"
         id="path154" />
    </clipPath>
    <clipPath
       clipPathUnits="userSpaceOnUse"
       id="clipPath192">
      <path
         d="m 552.838,678.167 c 0,0 5.674,-30.226 -10.235,-46.135 v 0 c -19.941,-19.94 -17.123,-44.203 -5.866,-58.797 v 0 c 0,-25.419 -11.241,-71.742 -11.241,-97.217 v 0 c 38.006,-15.395 102.026,-15.437 130.221,0 v 0 c -8.291,19.888 -23.241,41.88 -12.954,77.29 v 0 c 10.555,36.33 7.967,73.145 3.598,97.02 v 0 c -3.796,20.747 -18.006,34.279 -38.509,34.279 v 0 c -31.31,0 -55.014,-6.44 -55.014,-6.44"
         id="path190" />
    </clipPath>
    <clipPath
       clipPathUnits="userSpaceOnUse"
       id="clipPath204">
      <path
         d="M 0,1080 H 1080 V 0 H 0 Z"
         id="path202" />
    </clipPath>
    <clipPath
       clipPathUnits="userSpaceOnUse"
       id="clipPath216">
      <path
         d="m 530.583,133.675 c 0,-5.738 -14.378,-8.478 -17.173,-11.914 v 0 c -2.795,-3.437 1.891,-5.697 11.89,-4.135 v 0 c 9.998,1.563 29.864,3.299 34.581,3.565 v 0 c 4.716,0.268 1.565,12.484 1.565,12.484 v 0 l 1.63,22.371 -34.775,0.892 z"
         id="path214" />
    </clipPath>
    <clipPath
       clipPathUnits="userSpaceOnUse"
       id="clipPath228">
      <path
         d="M 0,1080 H 1080 V 0 H 0 Z"
         id="path226" />
    </clipPath>
    <clipPath
       clipPathUnits="userSpaceOnUse"
       id="clipPath240">
      <path
         d="m 632.476,156.938 6.391,-26.266 c 0,0 3.485,-6.291 14.146,-6.291 v 0 c 10.474,0 12.939,6.291 12.939,6.291 v 0 26.266 z"
         id="path238" />
    </clipPath>
    <clipPath
       clipPathUnits="userSpaceOnUse"
       id="clipPath252">
      <path
         d="M 0,1080 H 1080 V 0 H 0 Z"
         id="path250" />
    </clipPath>
    <clipPath
       clipPathUnits="userSpaceOnUse"
       id="clipPath298">
      <path
         d="m 759.043,280.457 h 273.514 V 532.924 H 759.043 Z"
         id="path296" />
    </clipPath>
    <clipPath
       clipPathUnits="userSpaceOnUse"
       id="clipPath310">
      <path
         d="m 552.838,678.167 c 0,0 -6.268,-32.141 -22.177,-48.051 v 0 c -19.942,-19.94 -4.532,-56.838 -4.532,-74.956 v 0 c 0,-25.419 -13.46,-53.667 -13.46,-79.142 v 0 c 38.005,-15.395 114.853,-15.437 143.048,0 v 0 c -8.291,19.888 -23.241,41.88 -12.954,77.29 v 0 c 10.555,36.33 7.967,73.145 3.598,97.02 v 0 c -3.796,20.747 -18.006,34.279 -38.509,34.279 v 0 c -31.31,0 -55.014,-6.44 -55.014,-6.44"
         id="path308" />
    </clipPath>
    <clipPath
       clipPathUnits="userSpaceOnUse"
       id="clipPath322">
      <path
         d="M 0,1080 H 1080 V 0 H 0 Z"
         id="path320" />
    </clipPath>
    <clipPath
       clipPathUnits="userSpaceOnUse"
       id="clipPath342">
      <path
         d="m 274.696,725.991 h 133.42 v 97.841 h -133.42 z"
         id="path340" />
    </clipPath>
  </defs>
  <g
     inkscape:label="Layer 1"
     inkscape:groupmode="layer"
     id="layer1">
    <g
       id="g2166"
       transform="matrix(0.59550799,0,0,0.59550799,58.377893,39.272343)">
      <g
         id="g12"
         transform="matrix(0.35277777,0,0,-0.35277777,-122.45499,292.22906)">
        <g
           id="g14"
           clip-path="url(#clipPath18)">
          <g
             id="g20"
             transform="translate(148.8565,173.7298)">
            <path
               d="m 0,0 h 792.012 c 3.344,3.81 6.604,7.697 9.769,11.662 39.667,49.687 64.778,111.103 64.019,172.12 -1.141,91.547 -46.563,180.847 -116.26,228.659 C 608.963,508.878 557.229,632.68 385.592,632.68 165.689,632.68 -41.234,296.346 -41.234,159.261 -41.234,54.557 0,0 0,0"
               style="fill:#dedede;fill-opacity:1;fill-rule:nonzero;stroke:none"
               id="path22" />
          </g>
          <g
             id="g24"
             transform="translate(938.124,671.1927)">
            <path
               d="m 0,0 c 0,35.655 -28.639,64.604 -64.165,65.142 -2.194,60.616 -50.579,109.45 -111.015,112.343 -27.121,58.524 -86.374,99.122 -155.119,99.122 -77.354,0 -142.691,-51.401 -163.75,-121.908 -2.378,0.154 -4.768,0.26 -7.184,0.26 -60.786,0 -110.063,-49.277 -110.063,-110.063 0,-60.614 49.002,-109.773 109.552,-110.049 v -0.013 h 0.501 0.01 0.009 170.907 0.018 0.019 265.104 0.009 0.01 1.079 v 0.027 C -28.592,-64.555 0,-35.625 0,0"
               style="fill:#ffffff;fill-opacity:1;fill-rule:nonzero;stroke:none"
               id="path26" />
          </g>
          <g
             id="g28"
             transform="translate(938.124,671.1927)">
            <path
               d="m 0,0 c 0,35.655 -28.639,64.604 -64.165,65.142 -2.194,60.616 -50.579,109.45 -111.015,112.343 -27.121,58.524 -86.374,99.122 -155.119,99.122 -77.354,0 -142.691,-51.401 -163.75,-121.908 -2.378,0.154 -4.768,0.26 -7.184,0.26 -60.786,0 -110.063,-49.277 -110.063,-110.063 0,-60.614 49.002,-109.773 109.552,-110.049 v -0.013 h 0.501 0.01 0.009 170.907 0.018 0.019 265.104 0.009 0.01 1.079 v 0.027 C -28.592,-64.555 0,-35.625 0,0 Z"
               style="fill:none;stroke:#dedede;stroke-width:3;stroke-linecap:round;stroke-linejoin:round;stroke-miterlimit:10;stroke-dasharray:none;stroke-opacity:1"
               id="path30" />
          </g>
          <g
             id="g32"
             transform="translate(286.7202,564.0892)">
            <path
               d="M 0,0 C 35.221,106.327 125.301,187.657 236.703,210.453"
               style="fill:none;stroke:#ee0000;stroke-width:3;stroke-linecap:butt;stroke-linejoin:miter;stroke-miterlimit:10;stroke-dasharray:none;stroke-opacity:1"
               id="path34" />
          </g>
          <path
             d="M 465.623,676.697 H 260.71 v 182.929 h 204.913 z"
             style="fill:#000000;fill-opacity:1;fill-rule:nonzero;stroke:none"
             id="path36" />
        </g>
      </g>
      <g
         id="g38"
         transform="matrix(0.35277777,0,0,-0.35277777,-122.45499,292.22906)">
        <g
           id="g40"
           clip-path="url(#clipPath44)">
          <g
             id="g46"
             transform="translate(286.7202,564.0892)">
            <path
               d="M 0,0 C 35.221,106.327 125.301,187.657 236.703,210.453"
               style="fill:none;stroke:#ffffff;stroke-width:3;stroke-linecap:butt;stroke-linejoin:miter;stroke-miterlimit:10;stroke-dasharray:none;stroke-opacity:1"
               id="path48" />
          </g>
        </g>
      </g>
      <g
         id="g50"
         transform="matrix(0.35277777,0,0,-0.35277777,-122.45499,292.22906)">
        <g
           id="g52"
           clip-path="url(#clipPath56)">
          <g
             id="g58"
             transform="translate(786.3315,101.2562)">
            <path
               d="m 0,0 c 0,-7.488 -79.069,-13.56 -176.605,-13.56 -97.537,0 -176.606,6.072 -176.606,13.56 0,7.489 79.069,13.561 176.606,13.561 C -79.069,13.561 0,7.489 0,0"
               style="fill:#e9e3f8;fill-opacity:1;fill-rule:nonzero;stroke:none"
               id="path60" />
          </g>
          <g
             id="g62"
             transform="translate(443.5972,731.1624)">
            <path
               d="M 0,0 -13.03,7.255 -31.806,-8.263 -6.136,-27.587 Z"
               style="fill:#ffdada;fill-opacity:1;fill-rule:nonzero;stroke:none"
               id="path64" />
          </g>
          <g
             id="g66"
             transform="translate(447.5088,723.0755)">
            <path
               d="m 0,0 c 6.049,-6.642 16.26,-1.641 16.26,-1.641 l 5.013,11.921 c 0,0 -4.128,9.505 -7.274,13.149 -11.311,13.099 -8.508,10.26 -17.22,15.686 -7.095,4.418 -12.708,0 -12.708,0 0,0 -6.813,-9.484 -5.551,-19.626 C -20.991,15.561 -11.913,13.079 0,0"
               style="fill:#ffdada;fill-opacity:1;fill-rule:nonzero;stroke:none"
               id="path68" />
          </g>
          <g
             id="g70"
             transform="translate(460.2183,714.431)">
            <path
               d="m 0,0 c 12.26,-17.313 39.757,-43.775 39.757,-43.775 0,0 47.753,-38.59 72.687,-52.214 55.379,-30.261 82.01,28.606 53.762,40.192 -33.438,13.716 -101.23,37.918 -101.23,37.918 L 8.946,20.374 C 8.946,20.374 -6.198,18.18 0,0"
               style="fill:#009bca;fill-opacity:1;fill-rule:nonzero;stroke:none"
               id="path72" />
          </g>
          <path
             d="M 1032.558,280.457 H 759.043 v 252.467 h 273.515 z"
             style="fill:#000000;fill-opacity:1;fill-rule:nonzero;stroke:none"
             id="path74" />
          <path
             d="M 232.874,886.451 H 449.938 V 693.218 H 232.874 Z"
             style="fill:#ffffff;fill-opacity:1;fill-rule:nonzero;stroke:none"
             id="path76" />
          <path
             d="M 451.438,887.951 H 231.374 V 691.717 h 220.064 z m -3,-193.235 H 234.374 V 884.95 h 214.064 z"
             style="fill:#ee0000;fill-opacity:1;fill-rule:nonzero;stroke:none"
             id="path78" />
          <path
             d="M 231.374,887.951 H 451.438 V 850.236 H 231.374 Z"
             style="fill:#ee0000;fill-opacity:1;fill-rule:nonzero;stroke:none"
             id="path80" />
          <g
             id="g82"
             transform="translate(405.5498,874.7025)">
            <path
               d="m 0,0 c 3.045,0 5.514,-2.469 5.514,-5.515 0,-3.045 -2.469,-5.513 -5.514,-5.513 -3.045,0 -5.514,2.468 -5.514,5.513 C -5.514,-2.469 -3.045,0 0,0"
               style="fill:#ffffff;fill-opacity:1;fill-rule:nonzero;stroke:none"
               id="path84" />
          </g>
          <g
             id="g86"
             transform="translate(427.3569,874.7025)">
            <path
               d="m 0,0 c 3.045,0 5.514,-2.469 5.514,-5.515 0,-3.045 -2.469,-5.513 -5.514,-5.513 -3.045,0 -5.514,2.468 -5.514,5.513 C -5.514,-2.469 -3.045,0 0,0"
               style="fill:#ffffff;fill-opacity:1;fill-rule:nonzero;stroke:none"
               id="path88" />
          </g>
          <g
             id="g90"
             transform="translate(413.9561,701.5745)">
            <path
               d="m 0,0 c 8.922,-1.044 10.811,-12.256 10.811,-12.256 l -6.765,-11.022 -12.214,2.059 c -17.183,2.067 -12.307,1.419 -21.793,5.336 -7.726,3.189 -11.106,6.026 -11.106,6.026 h 21.507 c 0,0 2.854,0.811 2.094,3.664 C -20.932,-2.729 -29.73,0.841 -28.357,6.093 -27.355,9.924 -17.572,2.056 0,0"
               style="fill:#ffdada;fill-opacity:1;fill-rule:nonzero;stroke:none"
               id="path92" />
          </g>
          <g
             id="g94"
             transform="translate(665.9521,133.4564)">
            <path
               d="m 0,0 c 0,0 3.496,-1.992 3.496,-9.075 0,-7.084 2.739,-23.125 -4.93,-23.125 h -35.878 c -5.477,0 -11.31,7.479 -7.623,11.933 4.11,4.966 11.45,11.038 17.332,19.61 z"
               style="fill:#000000;fill-opacity:1;fill-rule:nonzero;stroke:none"
               id="path96" />
          </g>
          <path
             d="M 725.386,557.753 H 1015.14 V 299.376 H 725.386 Z"
             style="fill:#ffffff;fill-opacity:1;fill-rule:nonzero;stroke:#ee0000;stroke-width:3;stroke-linecap:butt;stroke-linejoin:miter;stroke-miterlimit:10;stroke-dasharray:none;stroke-opacity:1"
             id="path98" />
          <path
             d="M 725.386,557.753 H 1015.14 V 508.095 H 725.386 Z"
             style="fill:#ee0000;fill-opacity:1;fill-rule:nonzero;stroke:none"
             id="path100" />
          <g
             id="g102"
             transform="translate(954.7197,540.3099)">
            <path
               d="m 0,0 c 4.01,0 7.26,-3.251 7.26,-7.261 0,-4.01 -3.25,-7.26 -7.26,-7.26 -4.01,0 -7.26,3.25 -7.26,7.26 C -7.26,-3.251 -4.01,0 0,0"
               style="fill:#ffffff;fill-opacity:1;fill-rule:nonzero;stroke:none"
               id="path104" />
          </g>
          <g
             id="g106"
             transform="translate(983.4321,540.3099)">
            <path
               d="m 0,0 c 4.01,0 7.26,-3.251 7.26,-7.261 0,-4.01 -3.25,-7.26 -7.26,-7.26 -4.01,0 -7.26,3.25 -7.26,7.26 C -7.26,-3.251 -4.01,0 0,0"
               style="fill:#ffffff;fill-opacity:1;fill-rule:nonzero;stroke:none"
               id="path108" />
          </g>
        </g>
      </g>
      <g
         id="g110"
         transform="matrix(0.35277777,0,0,-0.35277777,-122.45499,292.22906)">
        <g
           id="g112"
           clip-path="url(#clipPath116)">
          <path
             d="m 137.604,437.022 h 334.19 v 90.876 h -334.19 z"
             style="fill:#ffffff;fill-opacity:1;fill-rule:nonzero;stroke:#dedede;stroke-width:3;stroke-linecap:round;stroke-linejoin:round;stroke-miterlimit:10;stroke-dasharray:none;stroke-opacity:1"
             id="path118" />
          <g
             id="g120"
             transform="translate(428.3052,482.4603)">
            <path
               d="m 0,0 c 0,-5.901 -4.784,-10.686 -10.686,-10.686 -5.9,0 -10.685,4.785 -10.685,10.686 0,5.901 4.785,10.685 10.685,10.685 C -4.784,10.685 0,5.901 0,0"
               style="fill:#ee0000;fill-opacity:1;fill-rule:nonzero;stroke:none"
               id="path122" />
          </g>
          <path
             d="m 137.604,346.146 h 334.19 v 90.876 h -334.19 z"
             style="fill:#ffffff;fill-opacity:1;fill-rule:nonzero;stroke:#dedede;stroke-width:3;stroke-linecap:round;stroke-linejoin:round;stroke-miterlimit:10;stroke-dasharray:none;stroke-opacity:1"
             id="path124" />
          <g
             id="g126"
             transform="translate(429.4922,391.5843)">
            <path
               d="m 0,0 c 0,-6.558 -5.315,-11.873 -11.873,-11.873 -6.556,0 -11.872,5.315 -11.872,11.873 0,6.557 5.316,11.872 11.872,11.872 C -5.315,11.872 0,6.557 0,0"
               style="fill:#ee0000;fill-opacity:1;fill-rule:nonzero;stroke:none"
               id="path128" />
          </g>
          <path
             d="m 137.604,255.27 h 334.19 v 90.876 h -334.19 z"
             style="fill:#ffffff;fill-opacity:1;fill-rule:nonzero;stroke:#dedede;stroke-width:3;stroke-linecap:round;stroke-linejoin:round;stroke-miterlimit:10;stroke-dasharray:none;stroke-opacity:1"
             id="path130" />
          <g
             id="g132"
             transform="translate(429.4922,300.7074)">
            <path
               d="m 0,0 c 0,-6.557 -5.315,-11.872 -11.873,-11.872 -6.556,0 -11.872,5.315 -11.872,11.872 0,6.558 5.316,11.873 11.872,11.873 C -5.315,11.873 0,6.558 0,0"
               style="fill:#ee0000;fill-opacity:1;fill-rule:nonzero;stroke:none"
               id="path134" />
          </g>
          <path
             d="m 137.604,164.394 h 334.19 v 90.876 h -334.19 z"
             style="fill:#ffffff;fill-opacity:1;fill-rule:nonzero;stroke:#dedede;stroke-width:3;stroke-linecap:round;stroke-linejoin:round;stroke-miterlimit:10;stroke-dasharray:none;stroke-opacity:1"
             id="path136" />
          <g
             id="g138"
             transform="translate(429.4922,209.8314)">
            <path
               d="m 0,0 c 0,-6.557 -5.315,-11.872 -11.873,-11.872 -6.556,0 -11.872,5.315 -11.872,11.872 0,6.558 5.316,11.873 11.872,11.873 C -5.315,11.873 0,6.558 0,0"
               style="fill:#ee0000;fill-opacity:1;fill-rule:nonzero;stroke:none"
               id="path140" />
          </g>
          <path
             d="m 190.367,473.805 h 181.952 v 17.311 H 190.367 Z"
             style="fill:#ec0000;fill-opacity:1;fill-rule:nonzero;stroke:none"
             id="path142" />
          <path
             d="m 191.491,383.035 h 179.705 v 17.097 H 191.491 Z"
             style="fill:#ec0000;fill-opacity:1;fill-rule:nonzero;stroke:none"
             id="path144" />
          <path
             d="m 191.491,292.16 h 179.705 v 17.097 H 191.491 Z"
             style="fill:#ec0000;fill-opacity:1;fill-rule:nonzero;stroke:none"
             id="path146" />
          <path
             d="m 191.491,201.284 h 179.705 v 17.097 H 191.491 Z"
             style="fill:#ec0000;fill-opacity:1;fill-rule:nonzero;stroke:none"
             id="path148" />
        </g>
      </g>
      <g
         id="g150"
         transform="matrix(0.35277777,0,0,-0.35277777,-122.45499,292.22906)">
        <g
           id="g152"
           clip-path="url(#clipPath156)">
          <g
             id="g158"
             transform="translate(637.9009,732.3421)">
            <path
               d="m 0,0 c 0,25.174 -20.407,45.581 -45.581,45.581 -25.174,0 -39.588,-26.36 -37.524,-51.449 1.126,-13.697 5.595,-36.851 17.475,-35.07 0,-9.69 -0.214,-22.751 7.568,-22.751 8.463,0 38.634,7.726 38.634,7.726 0,0 -8.431,9.168 0.491,18.091 C -8.162,-27.098 0,-16.358 0,0"
               style="fill:#ffdada;fill-opacity:1;fill-rule:nonzero;stroke:none"
               id="path160" />
          </g>
          <g
             id="g162"
             transform="translate(665.9521,156.9388)">
            <path
               d="m 0,0 h -33.58 c 0,0 -58.939,208.27 -78.872,319.079 h 98.244 c 10.652,-15.423 10.345,-47.453 -2.386,-64.368 3.954,-24.528 0.852,-79.759 1.18,-112.273 C -6.354,106.84 0,0 0,0"
               style="fill:#000000;fill-opacity:1;fill-rule:nonzero;stroke:none"
               id="path164" />
          </g>
          <g
             id="g166"
             transform="translate(564,156.0452)">
            <path
               d="m 0,0 -35.945,0.894 c 0,0 -5.817,129.056 -5.817,249.752 0,40.084 3.258,69.327 3.258,69.327 H 65.967 c 0,0 -4.812,-52.663 -29.114,-84.16 C 37.951,195.919 30.755,178.578 21.719,141.579 16.114,82.049 0,0 0,0"
               style="fill:#000000;fill-opacity:1;fill-rule:nonzero;stroke:none"
               id="path168" />
          </g>
          <g
             id="g170"
             transform="translate(655.7168,476.0179)">
            <path
               d="m 0,0 c -28.194,-15.437 -92.215,-15.396 -130.221,0 0,25.476 11.242,71.799 11.242,97.218 -11.258,14.593 -14.076,38.856 5.865,58.797 15.909,15.909 10.235,46.134 10.235,46.134 0,0 23.704,6.441 55.014,6.441 20.503,0 34.713,-13.532 38.51,-34.279 C -4.987,150.436 -2.399,113.62 -12.954,77.29 -23.241,41.88 -8.291,19.889 0,0"
               style="fill:#00b8da;fill-opacity:1;fill-rule:nonzero;stroke:none"
               id="path172" />
          </g>
          <g
             id="g174"
             transform="translate(638.8667,130.6722)">
            <path
               d="M 0,0 C 0,0 3.485,-6.291 14.146,-6.291 24.62,-6.291 27.085,0 27.085,0 V 26.267 H -6.391 Z"
               style="fill:#ffdada;fill-opacity:1;fill-rule:nonzero;stroke:none"
               id="path176" />
          </g>
          <g
             id="g178"
             transform="translate(518.2764,123.9349)">
            <path
               d="m 0,0 c -19.832,0 -34.703,-7.609 -30.553,-15.249 4.15,-7.64 14.781,-7.429 24.889,-7.429 h 47.268 c 3.696,0 9.6,4.699 2.561,26.078 z"
               style="fill:#000000;fill-opacity:1;fill-rule:nonzero;stroke:none"
               id="path180" />
          </g>
          <g
             id="g182"
             transform="translate(563.0757,156.0452)">
            <path
               d="m 0,0 -34.774,0.894 2.281,-23.264 c 0,-5.738 -14.378,-8.478 -17.173,-11.914 -2.794,-3.438 1.892,-5.697 11.891,-4.135 9.998,1.563 29.864,3.299 34.58,3.565 4.716,0.267 1.566,12.484 1.566,12.484 z"
               style="fill:#ffdada;fill-opacity:1;fill-rule:nonzero;stroke:none"
               id="path184" />
          </g>
        </g>
      </g>
      <g
         id="g186"
         transform="matrix(0.35277777,0,0,-0.35277777,-122.45499,292.22906)">
        <g
           id="g188"
           clip-path="url(#clipPath192)">
          <g
             id="g194"
             transform="translate(574.2988,646.8128)">
            <path
               d="m 0,0 c 6.641,-12.511 5.18,-27.037 -10.492,-31.289 -16.338,-4.434 -26.971,5.397 -26.971,10.368 C -37.463,-10.623 0,0 0,0"
               style="fill:#009bca;fill-opacity:1;fill-rule:nonzero;stroke:none"
               id="path196" />
          </g>
        </g>
      </g>
      <g
         id="g198"
         transform="matrix(0.35277777,0,0,-0.35277777,-122.45499,292.22906)">
        <g
           id="g200"
           clip-path="url(#clipPath204)">
          <g
             id="g206"
             transform="translate(571.9805,692.554)">
            <path
               d="m 0,0 c 4.794,-2.091 6.661,-4.962 6.661,-4.962 0,0 5.441,15.577 -4.637,28.092 C 3.402,3.09 -12.11,5.284 0,0"
               style="fill:#ffb2b4;fill-opacity:1;fill-rule:nonzero;stroke:none"
               id="path208" />
          </g>
        </g>
      </g>
      <g
         id="g210"
         transform="matrix(0.35277777,0,0,-0.35277777,-122.45499,292.22906)">
        <g
           id="g212"
           clip-path="url(#clipPath216)">
          <g
             id="g218"
             transform="translate(556.7832,134.6331)">
            <path
               d="m 0,0 c 0.653,5.601 -0.098,21.595 -0.098,21.595 l 6.39,-0.183 -1.629,-22.37 6.087,-16.553 -42.233,0.504 c 0,0 29.895,3.393 31.483,17.007"
               style="fill:#ffb2b4;fill-opacity:1;fill-rule:nonzero;stroke:none"
               id="path220" />
          </g>
        </g>
      </g>
      <g
         id="g222"
         transform="matrix(0.35277777,0,0,-0.35277777,-122.45499,292.22906)">
        <g
           id="g224"
           clip-path="url(#clipPath228)">
          <g
             id="g230"
             transform="translate(516.2075,125.5208)">
            <path
               d="m 0,0 c -10.057,-6.106 -0.906,-9.457 9.093,-7.895 9.998,1.563 28.35,3.566 33.074,3.566 6.939,0 5.011,10.325 5.011,10.325"
               style="fill:none;stroke:#ffffff;stroke-width:3;stroke-linecap:butt;stroke-linejoin:miter;stroke-miterlimit:10;stroke-dasharray:none;stroke-opacity:1"
               id="path232" />
          </g>
        </g>
      </g>
      <g
         id="g234"
         transform="matrix(0.35277777,0,0,-0.35277777,-122.45499,292.22906)">
        <g
           id="g236"
           clip-path="url(#clipPath240)">
          <g
             id="g242"
             transform="translate(662.0039,123.1664)">
            <path
               d="M 0,0 -2.807,33.772 H 3.948 V 7.506 Z"
               style="fill:#ffb2b4;fill-opacity:1;fill-rule:nonzero;stroke:none"
               id="path244" />
          </g>
        </g>
      </g>
      <g
         id="g246"
         transform="matrix(0.35277777,0,0,-0.35277777,-122.45499,292.22906)">
        <g
           id="g248"
           clip-path="url(#clipPath252)">
          <g
             id="g254"
             transform="translate(637.3203,133.4564)">
            <path
               d="m 0,0 c 0,0 5.031,-9.075 15.692,-9.075 5.647,0 8.724,2.006 8.724,2.006"
               style="fill:none;stroke:#ffffff;stroke-width:3;stroke-linecap:butt;stroke-linejoin:miter;stroke-miterlimit:10;stroke-dasharray:none;stroke-opacity:1"
               id="path256" />
          </g>
          <g
             id="g258"
             transform="translate(624.8354,419.2728)">
            <path
               d="m 0,0 -14.158,-11.921 c 0,0 -17.166,-77.82 -24.958,-109.727 -5.606,-59.531 -21.719,-141.58 -21.719,-141.58"
               style="fill:none;stroke:#ffffff;stroke-width:3;stroke-linecap:butt;stroke-linejoin:miter;stroke-miterlimit:10;stroke-dasharray:none;stroke-opacity:1"
               id="path260" />
          </g>
          <path
             d="M 861.541,415.097 H 760.229 v 68.131 h 101.312 z"
             style="fill:#dedede;fill-opacity:1;fill-rule:nonzero;stroke:none"
             id="path262" />
          <path
             d="M 980.296,331.783 H 878.984 v 151.445 h 101.312 z"
             style="fill:#dedede;fill-opacity:1;fill-rule:nonzero;stroke:none"
             id="path264" />
          <path
             d="M 861.541,331.783 H 760.229 v 68.131 h 101.312 z"
             style="fill:#dedede;fill-opacity:1;fill-rule:nonzero;stroke:none"
             id="path266" />
          <g
             id="g268"
             transform="translate(857.2266,299.3714)">
            <path
               d="M 0,0 C -25.042,-40.863 -59.101,-75.604 -99.407,-101.453"
               style="fill:none;stroke:#ee0000;stroke-width:3;stroke-linecap:butt;stroke-linejoin:miter;stroke-miterlimit:10;stroke-dasharray:none;stroke-opacity:1"
               id="path270" />
          </g>
          <g
             id="g272"
             transform="translate(787.6411,709.4173)">
            <path
               d="M 0,0 C 48.359,-39.624 84.771,-93.289 103.006,-154.769"
               style="fill:none;stroke:#ee0000;stroke-width:3;stroke-linecap:butt;stroke-linejoin:miter;stroke-miterlimit:10;stroke-dasharray:none;stroke-opacity:1"
               id="path274" />
          </g>
          <g
             id="g276"
             transform="translate(795.4097,711.6771)">
            <path
               d="m 0,0 c 0,-5.691 -4.613,-10.305 -10.304,-10.305 -5.691,0 -10.304,4.614 -10.304,10.305 0,5.69 4.613,10.304 10.304,10.304 C -4.613,10.304 0,5.69 0,0"
               style="fill:#ee0000;fill-opacity:1;fill-rule:nonzero;stroke:none"
               id="path278" />
          </g>
          <g
             id="g280"
             transform="translate(769.3467,197.9183)">
            <path
               d="m 0,0 c 0,-5.69 -4.613,-10.304 -10.304,-10.304 -5.691,0 -10.304,4.614 -10.304,10.304 0,5.69 4.613,10.304 10.304,10.304 C -4.613,10.304 0,5.69 0,0"
               style="fill:#ee0000;fill-opacity:1;fill-rule:nonzero;stroke:none"
               id="path282" />
          </g>
          <g
             id="g284"
             transform="translate(533.7266,774.5423)">
            <path
               d="m 0,0 c 0,-5.69 -4.613,-10.304 -10.304,-10.304 -5.691,0 -10.303,4.614 -10.303,10.304 0,5.69 4.612,10.304 10.303,10.304 C -4.613,10.304 0,5.69 0,0"
               style="fill:#ee0000;fill-opacity:1;fill-rule:nonzero;stroke:none"
               id="path286" />
          </g>
          <g
             id="g288"
             transform="translate(297.9258,563.3206)">
            <path
               d="m 0,0 c 0,-5.69 -4.613,-10.304 -10.304,-10.304 -5.691,0 -10.304,4.614 -10.304,10.304 0,5.691 4.613,10.305 10.304,10.305 C -4.613,10.305 0,5.691 0,0"
               style="fill:#ee0000;fill-opacity:1;fill-rule:nonzero;stroke:none"
               id="path290" />
          </g>
        </g>
      </g>
      <g
         id="g292"
         transform="matrix(0.35277777,0,0,-0.35277777,-122.45499,292.22906)">
        <g
           id="g294"
           clip-path="url(#clipPath298)">
          <g
             id="g300"
             transform="translate(857.2266,299.3714)">
            <path
               d="M 0,0 C -25.042,-40.863 -59.101,-75.604 -99.407,-101.453"
               style="fill:none;stroke:#ffffff;stroke-width:3;stroke-linecap:butt;stroke-linejoin:miter;stroke-miterlimit:10;stroke-dasharray:none;stroke-opacity:1"
               id="path302" />
          </g>
        </g>
      </g>
      <g
         id="g304"
         transform="matrix(0.35277777,0,0,-0.35277777,-122.45499,292.22906)">
        <g
           id="g306"
           clip-path="url(#clipPath310)">
          <g
             id="g312"
             transform="translate(584.1929,686.054)">
            <path
               d="m 0,0 c 5.421,-10.124 46.816,-21.179 28.217,-45.551 0,0 1.392,-2.685 9.223,-2.685 0,0 23.888,-29.577 8.67,-63.286 -15.218,-33.709 -32.903,-51.395 -23.444,-114.733 H 81.759 V 0 Z"
               style="fill:#009bca;fill-opacity:1;fill-rule:nonzero;stroke:none"
               id="path314" />
          </g>
        </g>
      </g>
      <g
         id="g316"
         transform="matrix(0.35277777,0,0,-0.35277777,-122.45499,292.22906)">
        <g
           id="g318"
           clip-path="url(#clipPath322)">
          <g
             id="g324"
             transform="translate(417.981,671.3314)">
            <path
               d="m 0,0 c 18.396,-18.232 52.108,-32.55 52.108,-32.55 0,0 39.543,-14.628 67.875,-16.763 62.93,-4.745 62.93,59.866 32.417,58.779 C 116.281,8.179 69.623,1.461 69.623,1.461 L 7.713,20.571 C 7.713,20.571 -1.769,14.281 0,0"
               style="fill:#00b8da;fill-opacity:1;fill-rule:nonzero;stroke:none"
               id="path326" />
          </g>
          <g
             id="g328"
             transform="translate(560.8086,768.012)">
            <path
               d="m 0,0 c -7.217,-13.747 2.36,-15.631 -3.92,-24.865 -8.163,-12.005 2.197,-19.859 -4.608,-27.778 14.833,0 6.242,19.07 13.651,17.539 4.554,-0.94 -6.311,-13.648 2.661,-22.994 11.554,-12.035 -2.06,-26.141 10.961,-34.867 9.367,-6.277 31.718,-9.348 32.857,-34.544 0,0 16.495,1.958 12.878,25.767 0,0 -3.659,6.304 -3.659,-5.65 0,-9.197 5.087,-25.426 26.302,-25.426 18.795,0 27.629,9.685 27.629,17.005 0,0 -17.682,3.829 -17.682,30.664 0,20.198 -2.744,33.553 -18.725,49.534 0,0 5.353,55.762 -40.146,55.762 C -0.485,20.147 0,0 0,0"
               style="fill:#000000;fill-opacity:1;fill-rule:nonzero;stroke:none"
               id="path330" />
          </g>
          <g
             id="g332"
             transform="translate(617.3408,651.2435)">
            <path
               d="m 0,0 c 0,0 8.893,17.34 -0.988,27.197 -9.882,9.858 -32.856,10.846 -32.856,23.198 0,0 -3.074,-12.96 18.76,-23.214 C 6.75,16.926 0,0 0,0"
               style="fill:#2e2e2e;fill-opacity:1;fill-rule:nonzero;stroke:none"
               id="path334" />
          </g>
        </g>
      </g>
      <g
         id="g336"
         transform="matrix(0.35277777,0,0,-0.35277777,-122.45499,292.22906)">
        <g
           id="g338"
           clip-path="url(#clipPath342)">
          <g
             id="g344"
             transform="translate(279.1436,819.3851)">
            <path
               d="M 0,0 V -35.579"
               style="fill:none;stroke:#dedede;stroke-width:6;stroke-linecap:round;stroke-linejoin:round;stroke-miterlimit:10;stroke-dasharray:none;stroke-opacity:1"
               id="path346" />
          </g>
          <g
             id="g348"
             transform="translate(350.3008,819.3851)">
            <path
               d="M 0,0 V -35.579"
               style="fill:none;stroke:#dedede;stroke-width:6;stroke-linecap:round;stroke-linejoin:round;stroke-miterlimit:10;stroke-dasharray:none;stroke-opacity:1"
               id="path350" />
          </g>
          <g
             id="g352"
             transform="translate(332.5112,801.595)">
            <path
               d="m 0,0 c 0,-9.825 -7.963,-17.789 -17.789,-17.789 -9.826,0 -17.789,7.964 -17.789,17.789 0,9.826 7.963,17.79 17.789,17.79 C -7.963,17.79 0,9.826 0,0 Z"
               style="fill:none;stroke:#dedede;stroke-width:6;stroke-linecap:round;stroke-linejoin:round;stroke-miterlimit:10;stroke-dasharray:none;stroke-opacity:1"
               id="path354" />
          </g>
          <g
             id="g356"
             transform="translate(403.6685,801.595)">
            <path
               d="m 0,0 c 0,-9.825 -7.964,-17.789 -17.789,-17.789 -9.826,0 -17.79,7.964 -17.79,17.789 0,9.826 7.964,17.79 17.79,17.79 C -7.964,17.79 0,9.826 0,0 Z"
               style="fill:none;stroke:#dedede;stroke-width:6;stroke-linecap:round;stroke-linejoin:round;stroke-miterlimit:10;stroke-dasharray:none;stroke-opacity:1"
               id="path358" />
          </g>
          <g
             id="g360"
             transform="translate(279.1436,766.0169)">
            <path
               d="M 0,0 V -35.578"
               style="fill:none;stroke:#dedede;stroke-width:6;stroke-linecap:round;stroke-linejoin:round;stroke-miterlimit:10;stroke-dasharray:none;stroke-opacity:1"
               id="path362" />
          </g>
          <g
             id="g364"
             transform="translate(302.8628,766.0169)">
            <path
               d="M 0,0 V -35.578"
               style="fill:none;stroke:#dedede;stroke-width:6;stroke-linecap:round;stroke-linejoin:round;stroke-miterlimit:10;stroke-dasharray:none;stroke-opacity:1"
               id="path366" />
          </g>
          <g
             id="g368"
             transform="translate(374.0195,766.0169)">
            <path
               d="M 0,0 V -35.578"
               style="fill:none;stroke:#dedede;stroke-width:6;stroke-linecap:round;stroke-linejoin:round;stroke-miterlimit:10;stroke-dasharray:none;stroke-opacity:1"
               id="path370" />
          </g>
          <g
             id="g372"
             transform="translate(397.7388,766.0169)">
            <path
               d="M 0,0 V -35.578"
               style="fill:none;stroke:#dedede;stroke-width:6;stroke-linecap:round;stroke-linejoin:round;stroke-miterlimit:10;stroke-dasharray:none;stroke-opacity:1"
               id="path374" />
          </g>
          <g
             id="g376"
             transform="translate(356.2305,748.2278)">
            <path
               d="m 0,0 c 0,-9.825 -7.964,-17.789 -17.789,-17.789 -9.826,0 -17.79,7.964 -17.79,17.789 0,9.825 7.964,17.789 17.79,17.789 C -7.964,17.789 0,9.825 0,0 Z"
               style="fill:none;stroke:#dedede;stroke-width:6;stroke-linecap:round;stroke-linejoin:round;stroke-miterlimit:10;stroke-dasharray:none;stroke-opacity:1"
               id="path378" />
          </g>
        </g>
      </g>
    </g>
  </g>
</svg>
