<svg id="logosandtypes_com" xmlns="http://www.w3.org/2000/svg" viewBox="0 0 150 150"><style>.st1{fill:#dd1a32}</style><path d="M0 0h150v150H0V0z" fill="none" id="Layer_3"/><g id="logosandtypes_com"><path class="st1" d="M121.2 19.6H28.9c-5.8 0-10.5 4.7-10.5 10.5v24.8H44v-4.1c0-3.1 2.6-5.7 5.7-5.7h50.8c3.1 0 5.7 2.5 5.7 5.7v4.1h25.6V30.1c-.1-5.8-4.8-10.5-10.6-10.5M106.1 99.2c0 3.1-2.6 5.7-5.7 5.7H49.7c-3.1 0-5.7-2.6-5.7-5.7v-4.1H18.4V120c0 5.8 4.7 10.5 10.5 10.5h92.3c5.8 0 10.5-4.7 10.5-10.5V95.2h-25.6v4zM44 62.2H18.4v25.6H44V62.2zM131.7 62.2h-25.6v25.6h25.6V62.2z"/></g></svg>