<?xml version="1.0" encoding="UTF-8"?><svg id="uuid-171859e9-5540-4123-95d8-af9eb768a63b" xmlns="http://www.w3.org/2000/svg" viewBox="0 0 38 38"><defs><style>.uuid-16cafae9-86e6-4ab8-b19d-5e1b4ca4380c{fill:#e00;}.uuid-5743ffdf-967b-4dd1-ba3f-9a32e534f4c9{fill:#fff;}.uuid-9068bb2a-7ead-4444-b804-d40d102e614c{fill:#e0e0e0;}</style></defs><rect class="uuid-5743ffdf-967b-4dd1-ba3f-9a32e534f4c9" x="1" y="1" width="36" height="36" rx="9" ry="9"/><path class="uuid-9068bb2a-7ead-4444-b804-d40d102e614c" d="m28,2.25c4.27332,0,7.75,3.47662,7.75,7.75v18c0,4.27338-3.47668,7.75-7.75,7.75H10c-4.27332,0-7.75-3.47662-7.75-7.75V10c0-4.27338,3.47668-7.75,7.75-7.75h18m0-1.25H10C5.02942,1,1,5.02942,1,10v18c0,4.97058,4.02942,9,9,9h18c4.97058,0,9-4.02942,9-9V10c0-4.97058-4.02942-9-9-9h0Z"/><path d="m27,15.91309h-10.18213l.77881-.77832c.24316-.24414.24316-.64062,0-.88477-.24414-.24414-.64062-.24414-.88477,0l-1.84668,1.84668c-.11719.11719-.18262.27637-.18262.44238s.06543.3252.18359.44238l1.84668,1.8457c.12207.12207.28125.18262.44141.18262s.32031-.06152.44238-.18359c.24414-.24414.24316-.63965-.00098-.88379l-.77979-.7793h9.55908v9.21191h-9.21191v-1.48535c0-.34473-.28027-.625-.625-.625s-.625.28027-.625.625v2.11035c0,.34473.28027.625.625.625h10.46191c.34473,0,.625-.28027.625-.625v-10.46191c0-.34473-.28027-.625-.625-.625Z"/><path class="uuid-16cafae9-86e6-4ab8-b19d-5e1b4ca4380c" d="m23.13379,21.01855l-1.84668-1.8457c-.24414-.24414-.63965-.24316-.88379.00098s-.24316.63965.00098.88379l.77979.7793h-9.55908v-9.21191h9.21191v1.48535c0,.34473.28027.625.625.625s.625-.28027.625-.625v-2.11035c0-.34473-.28027-.625-.625-.625h-10.46191c-.34473,0-.625.28027-.625.625v10.46191c0,.34473.28027.625.625.625h10.18213l-.77881.77832c-.24316.24414-.24316.64062,0,.88477.12207.12207.28223.18262.44238.18262s.32031-.06055.44238-.18262l1.84668-1.84668c.11719-.11719.18262-.27637.18262-.44238s-.06543-.3252-.18359-.44238Z"/></svg>