<?xml version="1.0" encoding="UTF-8" standalone="no"?>
<!-- Uploaded to: SVG Repo, www.svgrepo.com, Generator: SVG Repo Mixer Tools -->

<svg
   fill="#000000"
   width="800px"
   height="800px"
   viewBox="0 0 32 32"
   id="icon"
   version="1.1"
   sodipodi:docname="vm.svg"
   inkscape:version="1.3.2 (091e20ef0f, 2023-11-25)"
   xmlns:inkscape="http://www.inkscape.org/namespaces/inkscape"
   xmlns:sodipodi="http://sodipodi.sourceforge.net/DTD/sodipodi-0.dtd"
   xmlns="http://www.w3.org/2000/svg"
   xmlns:svg="http://www.w3.org/2000/svg">
  <sodipodi:namedview
     id="namedview10"
     pagecolor="#ffffff"
     bordercolor="#000000"
     borderopacity="0.25"
     inkscape:showpageshadow="2"
     inkscape:pageopacity="0.0"
     inkscape:pagecheckerboard="0"
     inkscape:deskcolor="#d1d1d1"
     showgrid="false"
     inkscape:zoom="0.90774833"
     inkscape:cx="445.05728"
     inkscape:cy="421.3723"
     inkscape:window-width="1499"
     inkscape:window-height="1243"
     inkscape:window-x="1740"
     inkscape:window-y="119"
     inkscape:window-maximized="0"
     inkscape:current-layer="icon" />
  <defs
     id="defs4">
    <style
       id="style2">
      .cls-1 {
        fill: none;
      }
    </style>
  </defs>
  <path
     d="m 32.086174,13.003436 v -2.932801 c 0,-2.4817997 -2.4817,-3.8354997 -4.5123,-3.8354997 a 6.7446,6.7446 0 0 0 -3.8354,1.5793 5.066,5.066 0 0 0 -3.61,-1.5793 5.9389,5.9389 0 0 0 -3.8354,1.5793 3.8172,3.8172 0 0 0 -3.3842,-1.5793 3.4913,3.4913 0 0 0 -3.3406998,1.8215 l -2.9762,6.7518007 -3.3047,-7.5739007 a 1.67,1.67 0 0 0 -2.1883,-0.8656 v 0 a 1.67,1.67 0 0 0 -0.85919997,2.2345 L 4.3361742,17.515836 c 0,0 0.6769,1.5793 2.0305,1.5793 a 1.9088,1.9088 0 0 0 2.0306,-1.1281 c 0.3124,-0.4687 2.6808998,-5.45 4.1077998,-8.4692007 a 0.5679,0.5679 0 0 1 1.0812,0.2437 v 7.4868007 a 1.8462,1.8462 0 0 0 1.6848,1.8629 1.8051,1.8051 0 0 0 1.9251,-1.801 v -6.204401 a 1.9177,1.9177 0 0 1 3.8354,0 v 6.204401 a 1.805,1.805 0 0 0 3.61,0 v -6.204401 a 1.9177,1.9177 0 0 1 3.8354,0 v 6.204401 a 1.805,1.805 0 0 0 3.61,0 z"
     id="path6"
     style="fill:#800000" />
  <rect
     id="_Transparent_Rectangle_"
     data-name="&lt;Transparent Rectangle&gt;"
     class="cls-1"
     width="32"
     height="32" />
</svg>
