<svg width="41" height="18" viewBox="0 0 41 18" fill="none" xmlns="http://www.w3.org/2000/svg">
<path d="M4.70141 2.18645C4.18913 1.07991 2.95964 0.588115 1.79162 1.1004C0.623609 1.61269 0.193285 2.90365 0.726063 4.01019L5.60304 14.6043C6.36122 16.2641 7.18088 17.1247 8.69725 17.1247C10.3161 17.1247 11.0333 16.1821 11.7915 14.6043C11.7915 14.6043 16.0332 5.34214 16.0947 5.23968C16.1356 5.13722 16.2791 4.85034 16.7094 4.85034C17.0783 4.85034 17.3856 5.13722 17.3856 5.52656V14.5838C17.3856 15.9772 18.1643 17.1247 19.6397 17.1247C21.1356 17.1247 21.9347 15.9772 21.9347 14.5838V7.16588C21.9347 5.73147 22.9593 4.80936 24.3527 4.80936C25.7461 4.80936 26.6683 5.77246 26.6683 7.16588V14.5838C26.6683 15.9772 27.4469 17.1247 28.9223 17.1247C30.4182 17.1247 31.2174 15.9772 31.2174 14.5838V7.16588C31.2174 5.73147 32.2419 4.80936 33.6354 4.80936C35.0288 4.80936 35.9509 5.77246 35.9509 7.16588V14.5838C35.9509 15.9772 36.7296 17.1247 38.205 17.1247C39.7008 17.1247 40.5 15.9772 40.5 14.5838V6.1413C40.5 3.04709 38 0.875 35.0083 0.875C32.0165 0.875 30.1313 2.94463 30.1313 2.94463C29.1272 1.65367 27.7543 0.875 25.4388 0.875C22.9798 0.875 20.8282 2.94463 20.8282 2.94463C19.8241 1.65367 18.1233 0.875 16.7299 0.875C14.5578 0.875 12.8365 1.8381 11.771 4.2356L8.65626 11.5715L4.70141 2.18645Z" fill="white"/>
</svg>
