<?xml version="1.0" encoding="UTF-8"?>
<svg id="Layer_1" xmlns="http://www.w3.org/2000/svg" version="1.1" viewBox="0 0 41 18">
  <!-- Generator: Adobe Illustrator 29.4.0, SVG Export Plug-In . SVG Version: 2.1.0 Build 152)  -->
  <defs>
    <style>
      .st0 {
        fill: #231f20;
      }
    </style>
  </defs>
  <path class="st0" d="M4.7,2.19c-.51-1.11-1.74-1.6-2.91-1.09C.62,1.61.19,2.9.73,4.01l4.88,10.59c.76,1.66,1.58,2.52,3.09,2.52,1.62,0,2.34-.94,3.09-2.52,0,0,4.24-9.26,4.3-9.36.04-.1.18-.39.61-.39.37,0,.68.29.68.68v9.06c0,1.39.78,2.54,2.25,2.54s2.3-1.15,2.3-2.54v-7.42c0-1.43,1.02-2.36,2.42-2.36s2.32.96,2.32,2.36v7.42c0,1.39.78,2.54,2.25,2.54s2.3-1.15,2.3-2.54v-7.42c0-1.43,1.02-2.36,2.42-2.36s2.32.96,2.32,2.36v7.42c0,1.39.78,2.54,2.25,2.54s2.29-1.15,2.29-2.54V6.14c0-3.09-2.5-5.27-5.49-5.27s-4.88,2.07-4.88,2.07c-1-1.29-2.38-2.07-4.69-2.07-2.46,0-4.61,2.07-4.61,2.07-1-1.29-2.7-2.07-4.1-2.07-2.17,0-3.89.96-4.96,3.36l-3.11,7.34L4.7,2.19Z"/>
</svg>